<svg xmlns="http://www.w3.org/2000/svg" viewBox="0 0 20.36 12.27"><defs><style>.cls-1{fill:#e1e8f6;}</style></defs><title>FTS</title><g id="Layer_2" data-name="Layer 2"><g id="Layer_1-2" data-name="Layer 1"><g id="Layer_1-3" data-name="Layer 1"><path id="Shape" class="cls-1" d="M5.15,1.77v.77a8.66,8.66,0,0,0-2.5.66h2.5V9.32c.37.17.76.35,1.17.51V3.2h2c0,1.13-.15,2.39-.15,3.48v.07A1.26,1.26,0,0,0,9.63,8.08h3.44c1.47,0,2.14-.78,2.14-1.74,0-1.11-.75-1.36-1.58-1.6l-.47-.15c-.76-.23-1-.37-1-.75a.7.7,0,0,1,.55-.65l.21,0H13a.91.91,0,0,1,.83.34l.07.11a1.61,1.61,0,0,1,.11.42h1.12a1.85,1.85,0,0,0-2.09-1.77,2.41,2.41,0,0,0-1.56.52,1.14,1.14,0,0,0-.11.11A1.52,1.52,0,0,0,11,4c0,1.08.82,1.33,1.5,1.53l.66.21c.59.18.9.32.9.72a.91.91,0,0,1-1,.91l-3,0a.68.68,0,0,1-.58-.38,1,1,0,0,1-.12-.49c0-1.15,0-2.12,0-3.09h0V3.21h1.22c0-.06,0-.28,0-.46s0-.29,0-.29H9.42V1.9c0-.48,0-1.19,0-1.19l-1-.25s-.09,1.83-.09,2H6.31V2c0-.71.23-.94.67-.94a2.77,2.77,0,0,1,.86.2l0-1A3.73,3.73,0,0,0,6.75,0c-.88,0-1.6.51-1.6,1.77"/><path id="Shape-2" data-name="Shape" class="cls-1" d="M15.83,4.76C18.13,6,19.48,7.58,19.18,9c-.48,2.28-5,3.26-10.14,2.21S.14,7.44.61,5.16A2.67,2.67,0,0,1,2.17,3.42,3.05,3.05,0,0,0,0,5.41c-.49,2.36,3.65,5.21,9.25,6.37s10.55.18,11-2.18c.35-1.62-1.49-3.46-4.49-4.84"/></g></g></g></svg>