<svg xmlns="http://www.w3.org/2000/svg" viewBox="0 0 18.96 18.73"><defs><style>.cls-1{fill:#e1e8f6;}</style></defs><title>HDX</title><g id="Layer_2" data-name="Layer 2"><g id="Layer_1-2" data-name="Layer 1"><path class="cls-1" d="M16.09,5.69A2.86,2.86,0,0,0,19,2.85a2.87,2.87,0,0,0-5.73,0,2.78,2.78,0,0,0,.19,1L10.63,5.31A3.91,3.91,0,0,0,7.3,3.5a3.87,3.87,0,0,0-2.37.84l-.9-1A1.86,1.86,0,0,0,4.5,2.11a1.94,1.94,0,0,0-2-1.86A1.87,1.87,0,0,0,.66,2.11,1.89,1.89,0,0,0,2.62,4a1.87,1.87,0,0,0,.91-.24l.92,1A3.87,3.87,0,0,0,3.37,7.41a4,4,0,0,0,3.93,3.9,3.91,3.91,0,0,0,2-.57l3.42,4.8a1.81,1.81,0,0,0-.4.59l-8.56-2A1.93,1.93,0,0,0,1.88,12.3,1.9,1.9,0,0,0,0,14.25a1.88,1.88,0,0,0,1.88,1.87,1.93,1.93,0,0,0,1.78-1.31l8.51,1.94s0,.07,0,.11a2,2,0,0,0,2,1.87A1.88,1.88,0,0,0,16,16.86,2,2,0,0,0,14,15a1.86,1.86,0,0,0-.81.19L9.8,10.37A4,4,0,0,0,11,8.81l3.28,1a.77.77,0,0,0,0,.15,1.88,1.88,0,0,0,3.76,0,1.83,1.83,0,0,0-1.88-1.86A1.92,1.92,0,0,0,14.4,9.16l-3.25-.95a4.26,4.26,0,0,0,.08-.8,3.92,3.92,0,0,0-.3-1.54l2.78-1.45A2.85,2.85,0,0,0,16.09,5.69ZM1.88,15.48A1.23,1.23,0,0,1,.64,14.25a1.25,1.25,0,0,1,1.24-1.31,1.31,1.31,0,0,1,1.24,1.31A1.28,1.28,0,0,1,1.88,15.48Zm13.48,1.38a1.24,1.24,0,0,1-1.24,1.23,1.36,1.36,0,0,1-1.32-1.23A1.23,1.23,0,0,1,14,15.63,1.32,1.32,0,0,1,15.36,16.86Zm.73-8.15a1.18,1.18,0,0,1,1.24,1.22,1.24,1.24,0,0,1-2.48,0A1.28,1.28,0,0,1,16.09,8.71ZM1.29,2.11A1.24,1.24,0,0,1,2.54.88,1.32,1.32,0,0,1,3.86,2.11,1.24,1.24,0,0,1,2.62,3.34,1.25,1.25,0,0,1,1.29,2.11Zm6,8.56A3.32,3.32,0,0,1,4,7.41,3.33,3.33,0,0,1,7.3,4.14a3.25,3.25,0,0,1,3.3,3.27A3.32,3.32,0,0,1,7.3,10.67Zm8.79-10a2.22,2.22,0,0,1,2.23,2.21,2.23,2.23,0,0,1-4.46,0A2.22,2.22,0,0,1,16.09.64Z"/></g></g></svg>