<svg xmlns="http://www.w3.org/2000/svg" xmlns:xlink="http://www.w3.org/1999/xlink" viewBox="0 0 21.48 6.37"><defs><style>.cls-1{fill:#fff;}.cls-2{mask:url(#mask);}.cls-3{fill:#e1e8f6;}.cls-4{mask:url(#mask-2);}</style><mask id="mask" x="9.3" y="0.07" width="5.57" height="6.3" maskUnits="userSpaceOnUse"><g id="mask-10"><polygon id="path-9" class="cls-1" points="14.88 6.37 9.3 6.37 9.3 0.07 14.88 0.07 14.88 6.37"/></g></mask><mask id="mask-2" x="15.56" y="0" width="5.92" height="6.34" maskUnits="userSpaceOnUse"><g id="mask-12"><polygon id="path-11" class="cls-1" points="15.56 0 21.48 0 21.48 6.34 15.56 6.34 15.56 0"/></g></mask></defs><title>IASC</title><g id="Layer_2" data-name="Layer 2"><g id="Layer_1-2" data-name="Layer 1"><g id="Group-3"><g class="cls-2"><path id="Fill-1" class="cls-3" d="M14.6,1.84l-1.7.08a.45.45,0,0,1,0-.11A.89.89,0,0,0,12,1.13a.72.72,0,0,0-.62.2.35.35,0,0,0,.08.62,2.29,2.29,0,0,0,.46.17,16.3,16.3,0,0,1,1.66.45,1.72,1.72,0,0,1,1.22,1.24A2,2,0,0,1,14,5.9a2.54,2.54,0,0,1-1,.39,4.38,4.38,0,0,1-1.4,0,3.42,3.42,0,0,1-1.1-.22A1.92,1.92,0,0,1,9.39,4.73a3,3,0,0,1-.09-.45c.31,0,.6-.08.89-.1h.87a4.9,4.9,0,0,0,.21.51.91.91,0,0,0,.77.47A.92.92,0,0,0,13,4.81a.47.47,0,0,0,0-.55,1.22,1.22,0,0,0-.66-.41c-.39-.1-.78-.19-1.16-.3a2.74,2.74,0,0,1-1.24-.7,1.51,1.51,0,0,1-.34-1.34A1.71,1.71,0,0,1,11,.16a4.17,4.17,0,0,1,.7-.08h.92a2.6,2.6,0,0,1,1.31.38,1.73,1.73,0,0,1,.6.84.6.6,0,0,1,.09.54"/></g></g><path id="Fill-4" class="cls-3" d="M6.49,3.91a2.65,2.65,0,0,0-.08-.39c-.17-.56-.33-1.11-.5-1.68,0,0,0,0-.11-.05-.21.7-.43,1.4-.64,2.12ZM9.22,6.25h-2c-.11-.35-.23-.69-.34-1H5a.25.25,0,0,0-.29.23c-.07.28-.17.54-.25.83H2.49C3.27,4.21,4,2.19,4.8.15H6.89c.78,2,1.54,4,2.33,6.1Z"/><g id="Group-8"><g class="cls-4"><path id="Fill-6" class="cls-3" d="M21.4,1.91l-1.58.34c-.13-.17-.23-.34-.37-.49a1.11,1.11,0,0,0-1.69.07,1.27,1.27,0,0,0-.32.74,6.27,6.27,0,0,0-.05.74,4.29,4.29,0,0,0,.08.71,1.37,1.37,0,0,0,.48.74,1.12,1.12,0,0,0,.71.19,1.15,1.15,0,0,0,1.09-.88c.05-.1.07-.21.12-.32l.81.25.8.25a2.7,2.7,0,0,1-.72,1.4,2.25,2.25,0,0,1-1.17.61,4.71,4.71,0,0,1-1.4.06,2.68,2.68,0,0,1-1.69-.64,2.9,2.9,0,0,1-.86-1.47,6.32,6.32,0,0,1-.07-1.5,2.65,2.65,0,0,1,.29-1.23A2.47,2.47,0,0,1,17.43.16a4.84,4.84,0,0,1,2.42,0,2.14,2.14,0,0,1,1.51,1.5,1.71,1.71,0,0,1,.07.18s0,0,0,.08"/></g></g><path id="Fill-9" class="cls-3" d="M1.86,6.25H0V.13H1.83c.07.31.08,5.22,0,6.12"/></g></g></svg>