<svg xmlns="http://www.w3.org/2000/svg" viewBox="0 0 20.36 5.36"><defs><style>.cls-1{fill:#e1e8f6;}</style></defs><title>RW</title><g id="Layer_2" data-name="Layer 2"><g id="Layer_1-2" data-name="Layer 1"><path id="Fill-1" class="cls-1" d="M1.21,1.06a.57.57,0,0,0-.5.35c0-.11,0-.3-.19-.3S0,1.14,0,1.26a4.16,4.16,0,0,1,.05.66V3.4c0,.1.09.15.28.15H.46c.2,0,.28,0,.28-.15V1.9a.45.45,0,0,1,.37-.24c.1,0,.16,0,.22,0s.15-.31.15-.4a.24.24,0,0,0-.27-.24"/><path id="Fill-3" class="cls-1" d="M2.3,2.08c.06-.36.22-.47.42-.47s.33.2.33.47Zm1.42.18c0-.65-.27-1.2-1-1.2s-1.13.35-1.13,1.27A1.1,1.1,0,0,0,2.8,3.58c.26,0,.84-.11.84-.34s-.14-.35-.25-.35A1.75,1.75,0,0,1,2.83,3a.46.46,0,0,1-.53-.49H3.48a.48.48,0,0,0,.24-.28Z"/><path id="Fill-5" class="cls-1" d="M5.1,3,5,3c-.11,0-.16-.06-.16-.2V.17c0-.1-.09-.15-.28-.15H4.4c-.2,0-.28.05-.28.15V2.82c0,.52.24.76.68.76.14,0,.44,0,.44-.23,0,0,0-.34-.14-.34"/><path id="Fill-7" class="cls-1" d="M6,1.09H5.84c-.19,0-.27,0-.27.15V3.4c0,.1.08.15.27.15H6c.2,0,.28,0,.28-.15V1.24c0-.1-.08-.15-.28-.15"/><path id="Fill-9" class="cls-1" d="M6,0H5.84c-.19,0-.27.05-.27.15V.55c0,.1.08.15.27.15H6c.2,0,.28,0,.28-.15V.17C6.25.07,6.17,0,6,0"/><path id="Fill-11" class="cls-1" d="M7.43,2.08c.06-.36.23-.47.42-.47s.34.2.34.47Zm1.43.18c0-.65-.28-1.2-1-1.2s-1.13.35-1.13,1.27A1.11,1.11,0,0,0,7.94,3.58c.26,0,.83-.11.83-.34s-.14-.35-.24-.35A1.93,1.93,0,0,1,8,3a.46.46,0,0,1-.54-.49H8.61c.07,0,.25-.2.25-.28Z"/><path id="Fill-13" class="cls-1" d="M13.89,1.09h0c-.15,0-.24,0-.25.1l-.38,1.44L12.9,1.19c0-.07-.13-.1-.26-.1h-.11c-.15,0-.24,0-.25.1l-.35,1.44-.37-1.44,0,0a.11.11,0,0,0-.1,0H10V.74c0-.14.05-.2.17-.2l.15,0c.09,0,.14-.3.14-.33C10.47,0,10.15,0,10,0c-.44,0-.68.24-.68.75V1.1H9.25c-.1,0-.14.07-.14.24v.08c0,.16,0,.23.14.23h.08V3.41c0,.1.09.15.28.15h.13c.19,0,.28-.05.28-.15V1.65h1l.49,1.81c0,.07.1.1.25.1H12c.13,0,.25,0,.26-.1l.31-1.31.34,1.31c0,.07.1.1.25.1h.23c.13,0,.24,0,.25-.1l.55-2.17s0-.05,0-.07-.09-.13-.29-.13"/><path id="Fill-15" class="cls-1" d="M15.12,2.08c.06-.36.23-.47.42-.47s.33.2.33.47Zm1.42.18c0-.65-.27-1.2-1-1.2s-1.13.35-1.13,1.27a1.11,1.11,0,0,0,1.22,1.25c.25,0,.83-.11.83-.34s-.14-.35-.24-.35a1.93,1.93,0,0,1-.56.14.46.46,0,0,1-.54-.49H16.3c.07,0,.24-.2.24-.28Z"/><path id="Fill-17" class="cls-1" d="M18,3a.48.48,0,0,1-.39-.27v-1A.68.68,0,0,1,18,1.61c.29,0,.43.24.43.71S18.28,3,18,3m.09-1.95a.83.83,0,0,0-.48.14v-1c0-.1-.08-.15-.28-.15h-.12C17,0,17,.06,17,.16V3.4c0,.1.08.15.28.15h.05c.15,0,.25,0,.27-.12l0-.2a.7.7,0,0,0,.62.35c.51,0,.87-.45.87-1.26s-.35-1.26-1-1.26"/><path id="Fill-19" class="cls-1" d="M20.35,2.33a1.25,1.25,0,0,0-1-.88,3.68,3.68,0,0,1,.39.3.68.68,0,0,1,.22.7,1.43,1.43,0,0,1-.43.66A4.78,4.78,0,0,1,18,4.05a10.91,10.91,0,0,1-3.19.75,7.8,7.8,0,0,1-2.16-.07,2.87,2.87,0,0,1-1.14-.43.75.75,0,0,1-.35-.9L11,2.85h0a2.06,2.06,0,0,0-.63.71.84.84,0,0,0,.23,1.13,2.62,2.62,0,0,0,1.16.5,8.68,8.68,0,0,0,2.69.12,13.11,13.11,0,0,0,2.85-.58,8.06,8.06,0,0,0,2.18-1A2.56,2.56,0,0,0,20.17,3a.9.9,0,0,0,.18-.65"/></g></g></svg>