<svg xmlns="http://www.w3.org/2000/svg" viewBox="0 0 25.2 24"><defs><style>.cls-1{fill:#939598;}</style></defs><title>Asset 5</title><g id="Layer_2" data-name="Layer 2"><g id="Layer_1-2" data-name="Layer 1"><path class="cls-1" d="M21,.6a.6.6,0,0,0-.6-.6H5.4a.6.6,0,0,0-.6.6V2.4H21Z"/><path class="cls-1" d="M24.21,3.6H1a1,1,0,0,0-1,1v8.8a1,1,0,0,0,1,1H3.6v-3a1.81,1.81,0,0,1,1.8-1.8h15a1.81,1.81,0,0,1,1.8,1.8v3h2a1,1,0,0,0,1-1V4.59A1,1,0,0,0,24.21,3.6ZM17.4,7.8a1.2,1.2,0,1,1,1.2-1.2A1.2,1.2,0,0,1,17.4,7.8Zm3.6,0a1.2,1.2,0,1,1,1.2-1.2A1.2,1.2,0,0,1,21,7.8Z"/><path class="cls-1" d="M20.4,10.79H5.4a.6.6,0,0,0-.6.6v12a.6.6,0,0,0,.6.6h15a.6.6,0,0,0,.6-.6v-12A.6.6,0,0,0,20.4,10.79Z"/></g></g></svg>