<svg xmlns="http://www.w3.org/2000/svg" viewBox="0 0 21.31 26.92"><defs><style>.cls-1{fill:#939598;}</style></defs><title>Asset 3</title><g id="Layer_2" data-name="Layer 2"><g id="Layer_1-2" data-name="Layer 1"><path class="cls-1" d="M10.1,26.92h1.12a2.24,2.24,0,0,0,2.24-2.24H7.85A2.24,2.24,0,0,0,10.1,26.92Z"/><path class="cls-1" d="M18.79,18.51h-.1L17.64,10.6a7,7,0,0,0-4.18-5.53V2.8a2.81,2.81,0,0,0-5.61,0V5.07A7.06,7.06,0,0,0,3.67,10.6l-1,7.91h-.1a2.53,2.53,0,0,0,0,5H18.79a2.53,2.53,0,0,0,0-5ZM10.66,3.93a1.13,1.13,0,1,1,0-2.25,1.13,1.13,0,0,1,0,2.25Z"/></g></g></svg>