<svg xmlns="http://www.w3.org/2000/svg" viewBox="0 0 25.52 21.33"><defs><style>.cls-1{fill:#939598;}</style></defs><title>Asset 13</title><g id="Layer_2" data-name="Layer 2"><g id="Layer_1-2" data-name="Layer 1"><path class="cls-1" d="M24.22,0a1.3,1.3,0,0,0-1.3,1.3V20a1.3,1.3,0,0,0,2.6,0V1.3A1.3,1.3,0,0,0,24.22,0Z"/><path class="cls-1" d="M18.28,5.56a1.3,1.3,0,0,0-1.84,0,1.32,1.32,0,0,0,0,1.84l2,2H7.05l2-2A1.3,1.3,0,0,0,7.18,5.56L3,9.75a1.29,1.29,0,0,0-.38.92,1.33,1.33,0,0,0,.38.92l4.19,4.19a1.32,1.32,0,0,0,1.84,0,1.3,1.3,0,0,0,0-1.84l-2-2H18.41l-2,2a1.3,1.3,0,1,0,1.84,1.84l4.19-4.19a1.29,1.29,0,0,0,.38-.92,1.25,1.25,0,0,0-.38-.92Z"/><path class="cls-1" d="M1.3,0A1.3,1.3,0,0,0,0,1.3V20a1.3,1.3,0,0,0,2.6,0V1.3A1.3,1.3,0,0,0,1.3,0Z"/></g></g></svg>