<svg xmlns="http://www.w3.org/2000/svg" viewBox="0 0 25.09 15.68"><defs><style>.cls-1{fill:#939598;}</style></defs><title>Asset 6</title><g id="Layer_2" data-name="Layer 2"><g id="Layer_1-2" data-name="Layer 1"><path class="cls-1" d="M24.05,0h-23A1,1,0,0,0,0,1.05V14.64a1,1,0,0,0,1.05,1h23a1,1,0,0,0,1-1V1.05A1,1,0,0,0,24.05,0ZM6.78,10.53,3.12,13.66a.75.75,0,0,1-.51.19A.76.76,0,0,1,2,13.58a.79.79,0,0,1,.08-1.11L5.76,9.34a.78.78,0,0,1,1.11.08A.79.79,0,0,1,6.78,10.53Zm16.29,3.05a.76.76,0,0,1-.59.27.75.75,0,0,1-.51-.19l-3.66-3.13a.79.79,0,0,1-.09-1.11.78.78,0,0,1,1.11-.08L23,12.47A.79.79,0,0,1,23.07,13.58ZM22.94,3.24,13,10.56a.76.76,0,0,1-.93,0L2.15,3.24A.78.78,0,0,1,2,2.15.79.79,0,0,1,3.08,2l9.47,7L22,2a.79.79,0,0,1,1.1.17A.77.77,0,0,1,22.94,3.24Z"/></g></g></svg>