<svg xmlns="http://www.w3.org/2000/svg" viewBox="0 0 22.67 18.94"><defs><style>.cls-1{fill:#939598;}</style></defs><title>Asset 11</title><g id="Layer_2" data-name="Layer 2"><g id="Layer_1-2" data-name="Layer 1"><path class="cls-1" d="M22.57,4A5.09,5.09,0,0,0,18.63.1a5.54,5.54,0,0,0-2.07,0A5.07,5.07,0,0,0,12.65,4a1.88,1.88,0,0,0-.06.46,1.27,1.27,0,0,0,2.54.09A2.57,2.57,0,0,1,17.07,2.6a2.86,2.86,0,0,1,1.05,0,2.59,2.59,0,0,1,2,2,3.07,3.07,0,0,1,.05.53,2.87,2.87,0,0,1-.05.52,2.57,2.57,0,0,1-1.95,2,3.07,3.07,0,0,1-.53,0,1.27,1.27,0,0,0-1.27,1.27V12.1a1.28,1.28,0,0,0,2.55,0V10A5.09,5.09,0,0,0,22.57,6.1a5,5,0,0,0,.1-1A5.24,5.24,0,0,0,22.57,4Z"/><path class="cls-1" d="M17.6,15.49a1.73,1.73,0,1,0,1.73,1.72A1.72,1.72,0,0,0,17.6,15.49Z"/><path class="cls-1" d="M6,.1A5.34,5.34,0,0,0,4,.1,5.07,5.07,0,0,0,.06,4,1.88,1.88,0,0,0,0,4.44a1.27,1.27,0,0,0,2.54.09,2.56,2.56,0,0,1,2-1.93,2.8,2.8,0,0,1,1,0,2.59,2.59,0,0,1,2,2,3.07,3.07,0,0,1,0,.53,2.87,2.87,0,0,1,0,.52,2.57,2.57,0,0,1-1.94,2A3.29,3.29,0,0,1,5,7.6,1.27,1.27,0,0,0,3.74,8.87V12.1a1.28,1.28,0,0,0,2.55,0V10a5,5,0,0,0,3.79-4.91A5.24,5.24,0,0,0,10,4,5.09,5.09,0,0,0,6,.1Z"/><path class="cls-1" d="M5,15.49a1.73,1.73,0,1,0,1.73,1.72A1.72,1.72,0,0,0,5,15.49Z"/></g></g></svg>