<svg xmlns="http://www.w3.org/2000/svg" viewBox="0 0 20 15.65"><defs><style>.cls-1{fill:#939598;}</style></defs><title>Asset 7</title><g id="Layer_2" data-name="Layer 2"><g id="Layer_1-2" data-name="Layer 1"><path class="cls-1" d="M7.83,13H2.61V2.61H7.83A1.31,1.31,0,0,0,7.83,0H2.17A2.18,2.18,0,0,0,0,2.17V13.48a2.17,2.17,0,0,0,2.17,2.17H7.83a1.31,1.31,0,0,0,0-2.61Z"/><path class="cls-1" d="M19.62,6.9,14,1.25A1.31,1.31,0,0,0,12.12,3.1l3.43,3.42H5.22a1.31,1.31,0,1,0,0,2.61H15.55l-3.43,3.43A1.3,1.3,0,0,0,14,14.4l5.65-5.65A1.31,1.31,0,0,0,19.62,6.9Z"/></g></g></svg>