<svg xmlns="http://www.w3.org/2000/svg" xmlns:xlink="http://www.w3.org/1999/xlink" viewBox="0 0 459.84 459.18"><defs><style>.cls-1{isolation:isolate;}.cls-2{fill:#dcddde;}.cls-3{fill:#6d6e71;}.cls-4,.cls-7{mix-blend-mode:darken;}.cls-4{fill:url(#linear-gradient);}.cls-5{fill:#5091cd;}.cls-6{fill:#fff;}.cls-7{fill:#d1d3d4;}.cls-8{fill:#ebebec;}</style><linearGradient id="linear-gradient" x1="-2341.55" y1="485.85" x2="-2260.43" y2="25.77" gradientTransform="matrix(-1, 0, 0, 1, -2033.18, 0)" gradientUnits="userSpaceOnUse"><stop offset="0" stop-color="#fff" stop-opacity="0"/><stop offset="0.82" stop-opacity="0.2"/></linearGradient></defs><title>Asset 1</title><g class="cls-1"><g id="Layer_2" data-name="Layer 2"><g id="_512" data-name="512"><path class="cls-2" d="M360.41,0H74.51a11.9,11.9,0,0,0-11.9,11.9V447.27a11.9,11.9,0,0,0,11.9,11.91H447.62a11.9,11.9,0,0,0,11.9-11.91V99.11Z"/><path class="cls-3" d="M235,292.18H130.77a15.59,15.59,0,0,1,0-31.17H235a15.59,15.59,0,1,1,0,31.17Z"/><path class="cls-3" d="M203.87,354.72h-73.1a15.59,15.59,0,0,1,0-31.18h73.1a15.59,15.59,0,1,1,0,31.18Z"/><path class="cls-3" d="M224.73,417.37h-94a15.59,15.59,0,0,1,0-31.17h94a15.59,15.59,0,1,1,0,31.17Z"/><rect class="cls-3" x="282.23" y="260.89" width="135.45" height="156.48" rx="10.68" ry="10.68"/><polygon class="cls-4" points="321.67 459.18 459.67 459.18 459.67 99.44 414.56 54.12 64.4 54.49 37.8 195.79 321.67 459.18"/><path class="cls-5" d="M388.93,51.81H11.79A11.74,11.74,0,0,0,0,63.43V207.19A11.74,11.74,0,0,0,11.79,218.8H406.45a11.74,11.74,0,0,0,11.79-11.61V80.69Z"/><path class="cls-6" d="M68.89,155q0-5.09-2.6-7.69t-9.47-5.4q-12.52-4.76-18-11.13a22.34,22.34,0,0,1-5.49-15.07q0-10.51,7.46-16.89t19-6.38a28.43,28.43,0,0,1,13.67,3.23,22.41,22.41,0,0,1,9.23,9.12,27.32,27.32,0,0,1,3.24,13.38H69.12c0-3.88-.83-6.85-2.49-8.89a8.72,8.72,0,0,0-7.18-3.06,9,9,0,0,0-6.86,2.6,9.79,9.79,0,0,0-2.46,7,8.62,8.62,0,0,0,2.75,6.2q2.74,2.78,9.72,5.75,12.18,4.41,17.7,10.81t5.52,16.3q0,10.86-6.92,17T60.08,178a32.39,32.39,0,0,1-14.69-3.31A24.78,24.78,0,0,1,35,165.14a27.56,27.56,0,0,1-3.75-14.58H48.13q0,7.2,2.8,10.46t9.15,3.26Q68.89,164.28,68.89,155Z"/><rect class="cls-6" x="99.29" y="93.54" width="16.81" height="83.27"/><polygon class="cls-6" points="186.74 107.55 166.15 107.55 166.15 176.81 149.28 176.81 149.28 107.55 129.04 107.55 129.04 93.54 186.74 93.54 186.74 107.55"/><path class="cls-6" d="M239.76,141.92q12.06-6.63,12.07-23.21,0-12.08-6.89-18.62t-19.53-6.55H198.58v83.27H215.4V146.38h8.35l12.52,30.43h18.07V176ZM232.5,129q-2.52,3.34-7.55,3.34H215.4V107.55h9.83q9.78,0,9.78,12.53C235,123.81,234.17,126.8,232.5,129Z"/><polygon class="cls-6" points="311.44 140.78 285.25 140.78 285.25 162.85 316.25 162.85 316.25 176.81 268.44 176.81 268.44 93.54 316.13 93.54 316.13 107.55 285.25 107.55 285.25 127.23 311.44 127.23 311.44 140.78"/><path class="cls-6" d="M378.8,101.21q-7.35-7.67-19.7-7.67H330.74v83.27h16.81V147.53h11.21q12.87,0,20.13-7.09t7.26-19.33Q386.15,108.87,378.8,101.21Zm-12.26,29.16a9.16,9.16,0,0,1-7.44,3.15H347.55v-26h11.73a8.61,8.61,0,0,1,7.2,3.75q2.68,3.69,2.69,9.92Q369.17,127.24,366.54,130.37Z"/><polygon class="cls-7" points="459.84 179.43 459.62 101.28 459.62 99.2 458.39 97.98 363.94 5.43 364.7 96.36 459.84 179.43"/><path class="cls-8" d="M360.41,87.21a11.9,11.9,0,0,0,11.9,11.9h87.21L360.41,0Z"/></g></g></g></svg>