<svg xmlns="http://www.w3.org/2000/svg" viewBox="0 0 44 44"><defs><style>.cls-1{fill:#fff;}</style></defs><title>External link</title><g id="Layer_2" data-name="Layer 2"><g id="Layer_1-2" data-name="Layer 1"><path class="cls-1" d="M33,18.65V40H4V16H20.09l9-9H2.2A2.19,2.19,0,0,0,0,9.2V41.8A2.19,2.19,0,0,0,2.2,44H34.8A2.19,2.19,0,0,0,37,41.8V14.65ZM10.5,10A1.5,1.5,0,1,1,9,11.5,1.5,1.5,0,0,1,10.5,10Zm-5,0A1.5,1.5,0,1,1,4,11.5,1.5,1.5,0,0,1,5.5,10Z"/><path class="cls-1" d="M42,0H21a2,2,0,0,0,0,4H37L14.51,26.52a2.11,2.11,0,0,0,0,3,2.1,2.1,0,0,0,3,0L40,7V23a2,2,0,0,0,4,0V2A2,2,0,0,0,42,0Z"/></g></g></svg>
