<svg xmlns="http://www.w3.org/2000/svg" xmlns:xlink="http://www.w3.org/1999/xlink" viewBox="0 0 21.28 7.06"><defs><style>.cls-1{fill:#fff;}.cls-2{fill:#e1e8f6;}.cls-3{mask:url(#mask);}</style><mask id="mask" x="0" y="0" width="21.28" height="7.06" maskUnits="userSpaceOnUse"><g id="mask-4"><polygon id="path-3" class="cls-1" points="0 7.05 21.28 7.05 21.28 0 0 0 0 7.05"/></g></mask></defs><title>CERF</title><g id="Layer_2" data-name="Layer 2"><g id="Layer_1-2" data-name="Layer 1"><path id="Fill-1" class="cls-2" d="M9.72.55v.72a.29.29,0,1,0,.58,0V.55h.16v.74a.45.45,0,1,1-.9,0V.55Z"/><path id="Fill-3" class="cls-2" d="M10.74.94h.14v.12h0a.26.26,0,0,1,.25-.14.27.27,0,0,1,.28.3v.5h-.15V1.26c0-.15-.08-.2-.17-.2s-.22.08-.22.26v.4h-.14Z"/><g class="cls-3"><path id="Fill-5" class="cls-2" d="M11.69,1.72h.15V.94h-.15ZM11.76.55a.11.11,0,1,1,0,.22.11.11,0,0,1,0-.22Z"/></g><g class="cls-3"><path id="Fill-7" class="cls-2" d="M12.53,1.07h-.21v.35c0,.09,0,.18.11.18a.2.2,0,0,0,.11,0v.14a.32.32,0,0,1-.13,0c-.23,0-.23-.14-.23-.26V1.07H12V.94h.17V.72h.14V.94h.21Z"/></g><g class="cls-3"><path id="Fill-8" class="cls-2" d="M13.3,1.27A.21.21,0,0,0,13.08,1a.24.24,0,0,0-.24.23Zm-.46.12a.26.26,0,0,0,.47.11l.12.08a.42.42,0,0,1-.35.16.38.38,0,0,1-.39-.41.39.39,0,0,1,.4-.41.37.37,0,0,1,.37.41v.06Z"/></g><g class="cls-3"><path id="Fill-9" class="cls-2" d="M14.31,1.33a.26.26,0,1,0-.51,0,.26.26,0,1,0,.51,0Zm.15.39h-.15V1.61h0a.35.35,0,0,1-.27.13.39.39,0,0,1-.4-.41A.39.39,0,0,1,14,.92a.32.32,0,0,1,.27.13h0V.47h.15Z"/></g><g class="cls-3"><polygon id="Fill-10" class="cls-2" points="15.53 0.55 15.73 0.55 16.37 1.51 16.37 1.51 16.37 0.55 16.53 0.55 16.53 1.72 16.33 1.72 15.69 0.76 15.69 0.76 15.69 1.72 15.53 1.72 15.53 0.55"/></g><g class="cls-3"><path id="Fill-11" class="cls-2" d="M17.24,1.35c-.14,0-.31,0-.31.15s.06.12.16.12a.2.2,0,0,0,.22-.22v0ZM16.82,1a.45.45,0,0,1,.31-.12c.23,0,.32.13.32.26v.4a.61.61,0,0,0,0,.14h-.13a.49.49,0,0,1,0-.12h0a.3.3,0,0,1-.27.14c-.15,0-.27-.08-.27-.23s.19-.27.43-.27h.1v0A.16.16,0,0,0,17.13,1a.32.32,0,0,0-.22.09Z"/></g><g class="cls-3"><path id="Fill-12" class="cls-2" d="M18.13,1.07h-.21v.35c0,.09,0,.18.11.18a.2.2,0,0,0,.11,0v.14a.32.32,0,0,1-.13,0c-.23,0-.23-.14-.23-.26V1.07h-.17V.94h.17V.72h.14V.94h.21Z"/></g><g class="cls-3"><path id="Fill-13" class="cls-2" d="M18.34,1.72h.15V.94h-.15ZM18.42.55a.11.11,0,0,1,0,.22.11.11,0,1,1,0-.22Z"/></g><g class="cls-3"><path id="Fill-14" class="cls-2" d="M19.13,1.6a.25.25,0,0,0,.25-.27.26.26,0,1,0-.51,0,.25.25,0,0,0,.26.27m0-.68a.41.41,0,1,1-.41.41.41.41,0,0,1,.41-.41"/></g><g class="cls-3"><path id="Fill-15" class="cls-2" d="M19.76.94h.15v.12h0a.29.29,0,0,1,.26-.14.27.27,0,0,1,.28.3v.5H20.3V1.26c0-.15-.08-.2-.17-.2s-.22.08-.22.26v.4h-.15Z"/></g><g class="cls-3"><path id="Fill-16" class="cls-2" d="M21.12,1.14A.17.17,0,0,0,21,1.06c-.06,0-.12,0-.12.09s.13.1.19.12.23.08.23.23-.16.24-.31.24a.32.32,0,0,1-.3-.14l.11-.09A.25.25,0,0,0,21,1.6c.07,0,.15,0,.15-.1s-.12-.1-.18-.12-.24-.07-.24-.22A.26.26,0,0,1,21,.92a.31.31,0,0,1,.27.13Z"/></g><g class="cls-3"><path id="Fill-17" class="cls-2" d="M12,3.63a1.09,1.09,0,0,0-.84-.4A1.32,1.32,0,0,0,9.85,4.66,1.29,1.29,0,0,0,11.14,6a1.08,1.08,0,0,0,.91-.47l.39.3a1.61,1.61,0,0,1-1.31.61A1.79,1.79,0,0,1,9.35,4.66a1.76,1.76,0,0,1,1.81-1.87,1.51,1.51,0,0,1,1.21.54Z"/></g><g class="cls-3"><polygon id="Fill-18" class="cls-2" points="13.03 2.88 15.26 2.88 15.26 3.32 13.5 3.32 13.5 4.37 15.14 4.37 15.14 4.81 13.5 4.81 13.5 5.94 15.35 5.94 15.35 6.38 13.03 6.38 13.03 2.88"/></g><g class="cls-3"><path id="Fill-19" class="cls-2" d="M16.5,4.42h.62c.37,0,.74-.09.74-.56s-.37-.57-.74-.57H16.5ZM16,2.88h1.22c.89,0,1.11.54,1.11,1a.93.93,0,0,1-.85.92l1,1.6h-.58L17,4.84H16.5V6.38H16Z"/></g><g class="cls-3"><polygon id="Fill-20" class="cls-2" points="19.1 2.88 21.28 2.88 21.28 3.32 19.57 3.32 19.57 4.42 21.16 4.42 21.16 4.87 19.57 4.87 19.57 6.38 19.1 6.38 19.1 2.88"/></g><g class="cls-3"><path id="Fill-21" class="cls-2" d="M5.51,1.79a.45.45,0,0,1,.09.1h0a.52.52,0,0,0-.1-.11ZM4.28.48s0,0,0,0h.05l.1,0,.07,0,0,0a.26.26,0,0,1,.21.07l0,0v0L4.7.54a.15.15,0,0,1-.07,0h0l-.12,0H4.37l0,0L4.28.5v0Zm1.2.26s0,0,0,0,0,0,.05,0,0,0,0,.05a.08.08,0,0,0,0,.06s0,0-.06,0l0-.06-.06,0a.05.05,0,0,1,0-.05ZM5,2.3l0,0,0,0s0,.05,0,0,0,0,0,0Zm-.17-.17a1.05,1.05,0,0,0-.57-.22v.31l.11,0h0a.1.1,0,0,1,.1-.06s0,0,0-.05,0,0,.06,0a.27.27,0,0,1,0,.15.14.14,0,0,1-.08.05l.14.08,0,0v0l0,0,.13-.14h0s-.06,0,0-.07l0,0Zm-.73-.22a1,1,0,0,0-.61.24l.16.16s0,0,.06,0,0,0,.05,0,0,0,0,0,0,0,0,0,0,0,0,0,0,0,0-.05a.06.06,0,0,0,0,0s0,0,0-.07,0,0,0,0,0,0,0,0,0,0,.13,0Zm-1,1.31a1,1,0,0,0,.23.43l.28-.28,0,0h0s0,0,0,0,0,0,0,.05-.06.06-.08,0,0-.13,0-.13,0,0,0,.05,0,0,0,0l-.06,0s0,0,0,0,0,0,0,0,0,0,0,0,0,0,0,0l-.08,0Zm.37-.13v0s0,0,0,0Zm0,.67A1,1,0,0,0,4,4V4H4a.06.06,0,0,0,.07,0s0,0,0,0l0-.06a.08.08,0,0,0,0,0V4a1,1,0,0,0,.39-.12s0,0-.06,0,0,0,0,.06l-.07,0s-.06,0-.06,0,0,0,0,0-.07,0-.1-.06,0,0,0,0,0,0,0,0l0,0,0,.06s0,0,0,0A.06.06,0,0,1,4,4H4V4c0-.08,0-.1,0-.11h.06V3.75h0s0,0,0,0V3.61a.61.61,0,0,1-.33-.13Zm1.21.1,0,0s0,0,0,0Zm.07-.4.12.12a.54.54,0,0,0,0-.08l-.06,0,0,0v0h0Zm.36.24,0,0h0s0,0,.06,0a.36.36,0,0,0,0-.07s.06,0,.08,0,0,0,0,0a.2.2,0,0,1,0,.1s0,0,0,.12,0,0,0,.07h0l0,0V4s0-.06.06,0a.56.56,0,0,1,0,.1,1.66,1.66,0,0,0,.34-.59h0l-.12,0h-.1s0,0,0,0,0,.06-.06,0,0,0,0,0,0,0,0,0-.06.09-.06.1-.1,0-.11,0l0,.06Zm.63-.37a2.89,2.89,0,0,0,0-.29H5.54l0,0s0,.06,0,.08,0,0,.06.06,0,.08.06.1,0,0,0,0ZM4.82,4,4.77,4h0s.16,0,.2.06a.27.27,0,0,0,.1,0h.1l0,0L5.05,4S5,4,5,4L4.82,4Zm-.94.17a1.22,1.22,0,0,1-.52-.26l-.29.3a1.57,1.57,0,0,0,.82.39L3.8,4.52l-.06-.1c-.05,0,0-.09,0-.09a.07.07,0,0,0,0,0,.31.31,0,0,1,.06-.12l.08,0Zm-.63-.37A1.31,1.31,0,0,1,3,3.21H3a0,0,0,0,0,0,0v.1s0,.05,0,0a0,0,0,0,1,0,0h0s0,0,0-.07,0,0,0,0,0-.14,0-.14.06,0,.07,0H3a.19.19,0,0,1,0-.08H2.76s0,.09,0,.1-.09,0-.09,0,0,0,0,.08,0,0,0,0,.08.06.09.11a.14.14,0,0,0,0,.08s0,0,0,.07,0,.09,0,.11a.69.69,0,0,0,0,.16c0,.09,0,0,0,.09A.15.15,0,0,1,2.9,4l.05,0ZM2.65,3H2.52a1.54,1.54,0,0,0,0,.3,0,0,0,0,0,0,0s0,0,0,0,0,0,0,0,0,0,0,0,0,0,0-.07,0,0,0-.06,0,0,0,0Zm.29-.16V2.82h0a.08.08,0,0,0-.08.07Zm.22-.62a.44.44,0,0,1,.08-.11L3,1.85a1.63,1.63,0,0,0-.43,1H2.7a.11.11,0,0,1,0-.06s0-.09,0-.1l0,0s0,0,0-.05l0,0s0-.06,0-.08,0,0,.07,0a0,0,0,0,0,0,0s0,0,0,0S3,2.38,3,2.38s0,0,.06-.07a.21.21,0,0,1,.09-.05ZM3.36,2a1.2,1.2,0,0,1,.72-.3V1.33a1.63,1.63,0,0,0-1,.41Zm.88-.3A1.2,1.2,0,0,1,5,2l.3-.3a1.69,1.69,0,0,0-1-.41Zm.82.41.06.07h0l.16,0s.06.09.09.1,0,0,0,0,0,0,0,0a0,0,0,0,0,0,0,.09.09,0,0,1,.1,0c.07,0,0,.06.08.07s0,0,0,0,0,0,0,0,0,0,0,0,0,0,0,.05,0,0,0,0,0,0,0,0,.07-.08.07-.11h0l-.06-.19,0,0a.78.78,0,0,1-.15-.1s0,0,0,0a.11.11,0,0,0,0-.08l0,0-.1-.14-.06-.07Zm.48.73h.25a1.2,1.2,0,0,0,0-.2.13.13,0,0,1,0,0s-.05,0-.08,0,0,0,0,.06,0,0,0,0,0,0-.05,0,0,0-.06,0Zm1,.16a2.39,2.39,0,0,1-.64,1.55l.3.3A2.8,2.8,0,0,0,7,3ZM5.76,4.7A2.67,2.67,0,0,1,5.33,5h0a.82.82,0,0,1-.11.18s0,0-.06,0,0,0-.05.06L5,5.34a.15.15,0,0,1-.23,0s-.06,0-.08,0l0,0a2.32,2.32,0,0,1-.46.07v.42A2.77,2.77,0,0,0,6.06,5Zm-1.68.63A2.38,2.38,0,0,1,2.55,4.7L2.25,5a2.82,2.82,0,0,0,1.83.74ZM2.43,4.59a1.15,1.15,0,0,1-.14-.17s0,0-.09-.06,0-.08,0-.09,0,0,0,0H2.09a.23.23,0,0,1,0,0C2,4.22,2,4.17,2,4.16s0,0-.05,0,0,0,0,0a0,0,0,0,0,0,0S1.81,4,1.81,4s0,.05,0,.05S1.68,4,1.67,4s0,0,0,0,0-.1-.05-.11a.14.14,0,0,0,0-.06.37.37,0,0,1,0-.15s0,0,0-.05,0,0,0,0,0,0,0,0,0,0,.05,0,0,0,0,0,0,0,.05,0,.05,0,.06,0h0A2.74,2.74,0,0,1,1.78,3H1.35a2.79,2.79,0,0,0,.78,1.85ZM1.78,2.88a2.37,2.37,0,0,1,.65-1.56L2.13,1a2.83,2.83,0,0,0-.78,1.86Zm.77-1.67A2.37,2.37,0,0,1,4.08.59V.16A2.78,2.78,0,0,0,2.25.91ZM4.3.59a2.46,2.46,0,0,1,1,.27l.08,0s0,0,0,0l.08,0s0,0,.07,0l0,.06,0,0s.07.06.09.08,0,0,0,.1l.06.07L6.06.91A2.82,2.82,0,0,0,4.24.16V.51h0s0,0,0,.05v0Zm1.58.74a2.51,2.51,0,0,1,.25.32s.06.05.06.08a0,0,0,0,1,0,0l0,0h0l.06.1A.13.13,0,0,1,6.3,2a2.35,2.35,0,0,1,.22.92H7A2.78,2.78,0,0,0,6.18,1ZM4.16,2.46H4.05s0,0,0,0,0,.09,0,.09-.19.1-.19.1,0,0,0,.07-.05,0-.06,0,0,.05,0,.07,0,0,0,.06,0,.08,0,.1,0,0-.05,0,0-.09,0-.1h0V3a.34.34,0,0,0,0,.1l0,0s0,0,0,0,0,0,0-.06a.06.06,0,0,1,.06,0s0,0,0,0,0,0,0,0-.05.06-.06.1,0,.05,0,.05,0,0,0,0,0,.07,0,.07a.13.13,0,0,0,0-.06s0,0,.05,0,0-.08,0-.1S3.9,3,4,3s.1,0,.1.06,0,0,0,0,0,.06,0,.09,0,0,0,0l0,0c-.06.07-.06,0-.1,0a.1.1,0,0,1-.07,0h0a.54.54,0,0,0,.3.1h.08c0-.06,0-.15.07-.17s.1,0,.13,0,0,0,0,0a.28.28,0,0,0,0-.1s0,0,0,0,0,0,0,0a.94.94,0,0,1,0-.1s0,0,0,0,0,0,0-.06,0,0,0,0,0,0,0,0a.08.08,0,0,1,0-.06s-.06,0-.06,0a.21.21,0,0,0-.09-.1.19.19,0,0,0-.11,0s0-.07,0-.07,0,0,0-.07.06,0,.07,0Zm3,.5a3,3,0,1,1-3-3,3,3,0,0,1,3,3ZM5.48,1.75l0,0a.52.52,0,0,1,.1.11.21.21,0,0,0,0,.06l0,0s0,0,0,0,0,0,0,.07.06,0,.06,0,0,0,0,0,0,0,0,0l0,0s.06,0,.06,0,0,.07,0,.11a.14.14,0,0,1,0,.06s0,.09,0,.14l0,0h0s0,0,0,.06,0,0,0,.07a.15.15,0,0,0,0,.07s0,.06,0,.09h0s0,.07,0,.11h.41a2.28,2.28,0,0,0-.17-.79h0a.1.1,0,0,1-.06,0s0,0,0,0L5.93,1.9a.1.1,0,0,0-.07,0c-.05,0,0,0,0,0l-.09,0,0-.07v0H5.6l0,0-.07.07v0ZM4.24,1.16a1.93,1.93,0,0,1,.91.3.11.11,0,0,1,0-.06s0,0,0,0-.06-.09,0-.11.06,0,.09.07a.24.24,0,0,0,.08.09s.06,0,.07,0,0,.05,0,.1v0l.12-.13a.15.15,0,0,0-.07-.07l-.09,0s0,0,0,0a.18.18,0,0,1,0-.06s0,0,0,0,0-.08,0-.1a.14.14,0,0,0,0,0,.84.84,0,0,0,0-.1L5.12,1h0A2.2,2.2,0,0,0,4.24.75ZM3,1.62a1.8,1.8,0,0,1,1.13-.46V.75a2.17,2.17,0,0,0-1.42.58ZM2.36,2.88a1.74,1.74,0,0,1,.48-1.14l-.3-.3a2.24,2.24,0,0,0-.6,1.44Zm0,.31a.76.76,0,0,1,0-.15H1.94a2.28,2.28,0,0,0,.1.59h0s0,0,0,0,0,0,0,0,0,0,0,0,0,0,0,0,0,0,0,0a.21.21,0,0,1,0-.08l0-.08s.08-.06.11-.08a.09.09,0,0,1,.06-.06ZM4.08,4.75A1.83,1.83,0,0,1,3,4.32l0,0c.08.08.09.12.09.16s-.19,0-.19,0h0a.38.38,0,0,1-.19,0,.06.06,0,0,1,0,0l0,0a2.18,2.18,0,0,0,1.42.57Zm.16,0v.38a1.84,1.84,0,0,0,.33,0,.33.33,0,0,0-.1-.07s0,0-.07-.11,0-.06,0-.11-.16,0-.16,0l0,0Zm1.17,0a2,2,0,0,0,.24-.19H5.6a.08.08,0,0,1,0,0l-.22-.22-.05,0v0c.14.07.17.13.17.16s-.1.11-.1.14,0,0,0,.07ZM6,3l0,.25s.06.06.07.09,0,.07-.07,0l0,0a1.71,1.71,0,0,1-.42.77l.15.15v0s0-.07,0-.07a.09.09,0,0,1,.09.07s0,0,0,0a.15.15,0,0,0,0,.07l0,0a.09.09,0,0,1,0,0A2.2,2.2,0,0,0,6.36,3ZM4.7,3.67a0,0,0,0,0-.06,0l0,0s0,0,0,0,0,0,0,0l0,0h0s0,0,0,0Z"/></g><g class="cls-3"><path id="Fill-22" class="cls-2" d="M2,.28,1.73.37A1.24,1.24,0,0,0,1.3.64,1.3,1.3,0,0,0,1,1.22L1,1.37A4.22,4.22,0,0,0,1.43,1C1.54.83,1.67.6,1.76.5S2,.28,2,.28ZM.61,2.22A.64.64,0,0,1,.75,2,2.84,2.84,0,0,1,1,1.78l.3-.24A.9.9,0,0,0,1.57.91a.74.74,0,0,1-.15.24c-.1.1-.35.24-.45.33a.81.81,0,0,0-.25.37h0a3.79,3.79,0,0,0,.13-.4c0-.11.05-.28.11-.46A.56.56,0,0,1,1.19.68h0a.79.79,0,0,0-.59.62A4,4,0,0,0,.6,2c0,.15,0,.24,0,.24Zm-.07-1a0,0,0,0,1,0,0,.77.77,0,0,0-.11.43c0,.28,0,.33.06.58a3.8,3.8,0,0,1,0,.55h0A.78.78,0,0,1,.59,2.4a2.39,2.39,0,0,1,.49-.53.62.62,0,0,0,.13-.2s0,0,0,0a1.63,1.63,0,0,1-.13.43,7.17,7.17,0,0,1-.42.64,1.36,1.36,0,0,0-.2.49h0a2,2,0,0,0-.09-.39,2.53,2.53,0,0,1-.16-.46,1.7,1.7,0,0,1,0-.57A1.73,1.73,0,0,1,.54,1.2ZM1,2.47s0,0,0,0a4.52,4.52,0,0,1-.07.64c-.05.22-.19.68-.21.74a1.71,1.71,0,0,0,0,.45s0,0,0,0S.54,4.08.47,4a2.36,2.36,0,0,1-.32-.44A2,2,0,0,1,0,2.74a.89.89,0,0,1,.11-.46h0a1.35,1.35,0,0,0,0,.3A1.23,1.23,0,0,0,.27,3a2.69,2.69,0,0,1,.16.4,3,3,0,0,1,.07.31.47.47,0,0,0,.06.19h0a.65.65,0,0,1,0-.29.93.93,0,0,1,.12-.5A3,3,0,0,0,1,2.47Zm0,1a1,1,0,0,1,0,.22,3.41,3.41,0,0,0-.1.67A1,1,0,0,0,1,4.89H1L.68,4.46C.58,4.32.36,4.13.26,4A1.21,1.21,0,0,1,0,3.5H0a1.39,1.39,0,0,0,.09.67,1.38,1.38,0,0,0,.4.54,3.32,3.32,0,0,0,.55.38,1.83,1.83,0,0,1,.26.19h0a2.6,2.6,0,0,1-.15-.36,3.64,3.64,0,0,1-.07-.52,3.44,3.44,0,0,0-.18-1ZM.27,4.63a1.5,1.5,0,0,0,.44.75,1.49,1.49,0,0,0,.69.4l.4.07a1.59,1.59,0,0,1,.33.09,0,0,0,0,0,0,0A1,1,0,0,1,2,5.71a2.34,2.34,0,0,1-.26-.59S1.63,5,1.56,4.8a3.72,3.72,0,0,0-.35-.53h0a1.15,1.15,0,0,1,.08.23c0,.15.07.48.1.57a1.31,1.31,0,0,0,.19.41,1.22,1.22,0,0,0,.23.23s0,0,0,0A1.15,1.15,0,0,1,1.6,5.6a1.85,1.85,0,0,0-.25-.18C1.21,5.33,1,5.26.74,5.1a1.11,1.11,0,0,1-.45-.47s0,0,0,0ZM2.67,6.1s-.23,0-.56-.09a4.51,4.51,0,0,1-.73-.07.88.88,0,0,1-.46-.29h0a1.33,1.33,0,0,0,.56.53,1.49,1.49,0,0,0,.91.12l.4-.11a2.18,2.18,0,0,1,.44-.08s0,0,0,0A.9.9,0,0,1,2.83,6a1.84,1.84,0,0,1-.54-.43,3,3,0,0,0-.51-.42s0,0,0,0a1.47,1.47,0,0,1,.16.29,1.17,1.17,0,0,0,.22.37.82.82,0,0,0,.51.27s0,0,0,0Zm-1.08.26a1.29,1.29,0,0,0,.89.42,1.25,1.25,0,0,0,.72-.23,4.68,4.68,0,0,1,.47-.31.6.6,0,0,1,.33,0,1.83,1.83,0,0,0-.43.24,2.84,2.84,0,0,0-.51.43l.19.16a2.48,2.48,0,0,1,.38-.41,1.92,1.92,0,0,1,.55-.37,2.91,2.91,0,0,1,.93.77l.18-.16a3.53,3.53,0,0,0-.93-.66s0,0,.27,0a.71.71,0,0,1,.29.16,3.85,3.85,0,0,0,.45.28,1.38,1.38,0,0,0,.49.1,1.22,1.22,0,0,0,.9-.43h0a1,1,0,0,1-.62.17,1.81,1.81,0,0,1-.67-.18,1.6,1.6,0,0,0-.78-.22,1.21,1.21,0,0,0-.51.07,1.13,1.13,0,0,0-.44-.07A1.6,1.6,0,0,0,3,6.26a1.89,1.89,0,0,1-.84.26,1.08,1.08,0,0,1-.57-.17,0,0,0,0,0,0,0ZM6.29.26l.27.1A1,1,0,0,1,7,.62a1.36,1.36,0,0,1,.29.58.38.38,0,0,0,.06.14s0,0,0,0A5.61,5.61,0,0,1,6.86.93C6.75.81,6.62.58,6.52.49L6.29.26Zm1.4,1.93A.78.78,0,0,0,7.55,2a2.58,2.58,0,0,0-.23-.22c-.11-.09-.23-.16-.3-.23A.93.93,0,0,1,6.71.89a1.06,1.06,0,0,0,.17.24c.1.1.34.24.44.33a.84.84,0,0,1,.25.36h0s-.11-.28-.14-.39A2.27,2.27,0,0,0,7.34,1,.62.62,0,0,0,7.1.65h0a.79.79,0,0,1,.58.62,5.14,5.14,0,0,1,0,.68c0,.15,0,.24,0,.24Zm0-1s0,0,0,0a.79.79,0,0,1,.12.45c0,.28,0,.29-.06.54s0,.56,0,.56h0a1.1,1.1,0,0,0-.09-.34,2.17,2.17,0,0,0-.49-.53s-.13-.13-.14-.2,0,0,0,0a2,2,0,0,0,.14.45c.11.25.37.5.44.65a1,1,0,0,1,.17.45h0a1.34,1.34,0,0,1,.09-.38,2.62,2.62,0,0,0,.15-.48,1.46,1.46,0,0,0,0-.53,1.7,1.7,0,0,0-.34-.65ZM7.35,2.46s0,0,0,0a1.91,1.91,0,0,0,.08.63c0,.22.19.68.2.75a1.09,1.09,0,0,1,0,.44s0,0,0,0A2,2,0,0,1,7.85,4a2.37,2.37,0,0,0,.31-.43,1.63,1.63,0,0,0,.14-.75,1.4,1.4,0,0,0-.11-.54h0a.81.81,0,0,1,0,.3,1.23,1.23,0,0,1-.13.4,3.05,3.05,0,0,0-.17.43,1.87,1.87,0,0,0-.07.33.78.78,0,0,1-.06.19h0a.87.87,0,0,0,0-.28,1.12,1.12,0,0,0-.12-.51,2.44,2.44,0,0,1-.33-.64Zm.05.94a1.46,1.46,0,0,0,0,.22,5.48,5.48,0,0,1,.11.67,1.07,1.07,0,0,1-.18.57h0l.31-.43c.1-.13.32-.33.42-.45a1.1,1.1,0,0,0,.23-.51h0a1.39,1.39,0,0,1-.09.67,1.48,1.48,0,0,1-.39.54,4.09,4.09,0,0,1-.55.39A1.43,1.43,0,0,0,7,5.25H7a2.43,2.43,0,0,0,.14-.36,3.64,3.64,0,0,0,.07-.52,3.41,3.41,0,0,1,.17-1Zm.65,1.2a1.3,1.3,0,0,1-.42.75,1.51,1.51,0,0,1-.67.4l-.4.08a1.88,1.88,0,0,0-.35.09s0,0,0,0A1.73,1.73,0,0,0,6.4,5.7a2.61,2.61,0,0,0,.25-.6,3.3,3.3,0,0,1,.14-.35,2.86,2.86,0,0,1,.33-.5h0a1.43,1.43,0,0,0-.08.24C7,4.72,7,5,7,5.05a1.42,1.42,0,0,1-.19.41,1.22,1.22,0,0,1-.23.23s0,0,0,0a1.49,1.49,0,0,0,.17-.12c.08-.06.16-.13.3-.22a5.13,5.13,0,0,0,.57-.29A1,1,0,0,0,8,4.6s0,0,0,0ZM5.67,6.08,6.24,6A4.24,4.24,0,0,0,7,5.92a.87.87,0,0,0,.47-.29s0,0,0,0a1.21,1.21,0,0,1-.55.53A1.49,1.49,0,0,1,6,6.3l-.39-.11a2.31,2.31,0,0,0-.44-.08s0,0,0,0A2.3,2.3,0,0,0,5.53,6a2.28,2.28,0,0,0,.52-.44,2.43,2.43,0,0,1,.51-.43s0,0,0,0a2,2,0,0,0-.17.29,1.19,1.19,0,0,1-.21.38.9.9,0,0,1-.51.27s0,0,0,0Z"/></g></g></g></svg>