<svg xmlns="http://www.w3.org/2000/svg" viewBox="0 0 17.69 17.06"><defs><style>.cls-1{fill:#e1e8f6;}</style></defs><title>Events</title><g id="Layer_2" data-name="Layer 2"><g id="Layer_1-2" data-name="Layer 1"><g id="Group-51"><polygon id="Fill-33" class="cls-1" points="9.57 0 9.79 0.59 10.86 0 9.57 0"/><path id="Fill-35" class="cls-1" d="M12.54.21,14,3.27h0l3.74,8.11V1a1,1,0,0,0-1-1h-4.3a.65.65,0,0,1,.16.21"/><path id="Fill-37" class="cls-1" d="M.34,4.53,1.8,3.9l-.39-.84.35-.16.39.85L9.44.61,9.15,0H1A1,1,0,0,0,0,1V4.76a1.56,1.56,0,0,1,.34-.23"/><path id="Fill-39" class="cls-1" d="M17.39,13.17,8.31,17.06h8.37a1,1,0,0,0,1-1V13a1.49,1.49,0,0,1-.3.18"/><path id="Fill-41" class="cls-1" d="M1,8.42H1L0,6.21v9.88a1,1,0,0,0,1,1H5Z"/><path id="Fill-43" class="cls-1" d="M13.44,3.08,12.18.37a.43.43,0,0,0-.32-.23.42.42,0,0,0-.15,0,1,1,0,0,0-.32.06L9.94.79l.28.61a.56.56,0,0,1,.53.32.52.52,0,0,1-.28.7.57.57,0,0,1-.74-.27.52.52,0,0,1,.14-.6L9.59.94,2.3,4.08l.28.59A.57.57,0,0,1,3.11,5a.53.53,0,0,1-.28.71.57.57,0,0,1-.74-.27.55.55,0,0,1,.13-.61L2,4.23.49,4.86a.56.56,0,0,0-.38.7l1.25,2.7Z"/><polygon id="Fill-45" class="cls-1" points="3.31 9.04 5.02 8.31 5.79 9.96 4.07 10.7 3.31 9.04"/><polygon id="Fill-47" class="cls-1" points="4.48 11.57 6.19 10.84 6.96 12.49 5.24 13.23 4.48 11.57"/><polygon id="Fill-49" class="cls-1" points="5.63 14.13 7.35 13.4 8.11 15.05 6.4 15.79 5.63 14.13"/></g></g></g></svg>