<svg xmlns="http://www.w3.org/2000/svg" viewBox="0 0 18.15 18.18"><defs><style>.cls-1{fill:#e1e8f6;}</style></defs><title>HID</title><g id="Layer_2" data-name="Layer 2"><g id="Layer_1-2" data-name="Layer 1"><path class="cls-1" d="M17.5,5.69a9.44,9.44,0,0,0-.7-1.38A1,1,0,0,0,16.72,4c0-.1-.1-.2-.15-.28s-.2-.25-.23-.28l-.67-.78a8.71,8.71,0,0,0-.86-.75,8.3,8.3,0,0,0-1.6-1A5.74,5.74,0,0,0,11.33.17a3.84,3.84,0,0,0-.76,0A10,10,0,0,0,9.47,0,11.41,11.41,0,0,0,7,.23L6.36.41s0,0,0,0a1.8,1.8,0,0,0-.72.2c-.25.1-.48.2-.73.32a11.54,11.54,0,0,0-1.38.88A10.54,10.54,0,0,0,2.38,2.84,1.54,1.54,0,0,0,2,3.47a.22.22,0,0,0,0,.08,1.39,1.39,0,0,0-.15.19,11.11,11.11,0,0,0-.61,1.19A2.94,2.94,0,0,0,.47,6.11,10.52,10.52,0,0,0,0,8.45a8.64,8.64,0,0,0,.12,2.09c0,.12,0,.45.16.55s0,.05,0,0c.06.23.13.49.21.72a9.26,9.26,0,0,0,.92,1.94h0s-.12,0-.15,0,.28.53.35.63.28.35.43.52a6.14,6.14,0,0,0,1,1,9.52,9.52,0,0,0,1.26.93c.12.07.25.15.4.22a1.65,1.65,0,0,0,.37.2.4.4,0,0,0,.23-.05.84.84,0,0,0,.14.06,6,6,0,0,0,.89.23,3.84,3.84,0,0,0,1.68.59c.17,0,.58.05.6.05H9a12.27,12.27,0,0,0,1.38-.1,5.73,5.73,0,0,0,1.33-.3,3.64,3.64,0,0,0,1.2-.48l.4-.2.2-.1a9.26,9.26,0,0,0,2-1.5l.14,0c.22-.1.42-.43.6-.61a8.87,8.87,0,0,0,.85-1.25,14.05,14.05,0,0,0,.63-1.29,4.48,4.48,0,0,0,.27-.83,1.59,1.59,0,0,0,.1-.68s0,0,0-.05l-.14.16a9.74,9.74,0,0,0,.23-2.19.57.57,0,0,0,0-.13h0A8,8,0,0,0,17.5,5.69ZM13.25,16.55l-.21.11a2.41,2.41,0,0,1-.36.18,4,4,0,0,1-.52.14A4.1,4.1,0,0,1,11,16.07a10.69,10.69,0,0,1-1.45-1.91c-.3-.5-.6-1.43-1.38-1.23-.35.1-.7.32-1,.45a8,8,0,0,1-1.33.45,6.5,6.5,0,0,1-1,.18l-.9.07c-.35,0-.22.43-.1.66a5.93,5.93,0,0,0,.65.95,11.06,11.06,0,0,0,.9,1A8.41,8.41,0,0,1,3.54,15.5a7.48,7.48,0,0,1-1.43-1.63A8.68,8.68,0,0,1,1,11.69C1,11.47.89,11.23.84,11s0-.3,0-.46a3.38,3.38,0,0,1,.46-.37,8.67,8.67,0,0,1,2.36-1C4.06,9,4.53,8.93,5,8.8a.76.76,0,0,0,.58-1,16,16,0,0,1-.2-4.23c0-.15.1-.33,0-.48S5.13,3,5,3a5,5,0,0,0-1.18.37,11,11,0,0,0-1.65.81L2.21,4a2.33,2.33,0,0,1,.31-.41,7.19,7.19,0,0,1,.68-.76A8.14,8.14,0,0,1,5,1.53,9.79,9.79,0,0,1,7.09.72,10.79,10.79,0,0,1,9.44.5c0,.12.19.19.31.25s.48.23.7.33A6.45,6.45,0,0,1,11.73,2a8.3,8.3,0,0,1,.83.85c.5.55.57,1,1.9.5A2.49,2.49,0,0,1,15,3.22a.87.87,0,0,1,.27,0h0l.13.13a2,2,0,0,1,.2.21,7.09,7.09,0,0,1,.69.93A9.12,9.12,0,0,1,17,5.88a7.8,7.8,0,0,1,.61,2.65,1.09,1.09,0,0,0,0,.25v.06a9.3,9.3,0,0,1-1.25,4.69A8.24,8.24,0,0,1,13.25,16.55Z"/><path class="cls-1" d="M15.44,12.32a1.19,1.19,0,0,0,.4.08c.25,0,.4-.28.5-.48a7.61,7.61,0,0,0,.41-1.66c.07-.48.17-.93.22-1.41a5.83,5.83,0,0,0,.1-1.68.92.92,0,0,0-.32-.68,2.28,2.28,0,0,0-.68-.3,12.93,12.93,0,0,0-1.48-.51A28.41,28.41,0,0,0,11.7,5c-.47-.1-.95-.17-1.42-.27l-.83-.15a2.6,2.6,0,0,0-.73-.08c-.55.08-.58.58-.65,1s-.1.83-.18,1.23-.17,1-.27,1.51c0,.15-.43,2-.4,2.11a.72.72,0,0,0,.42.53,2.38,2.38,0,0,0,.73.15c.25,0,.48.1.73.13.5.1,1,.17,1.55.27a1.31,1.31,0,0,0,.27,0h0c.06.06.06.06.11.06s0,0,0,0l.7.11,1,.2.75.15.93.18c.15,0,.3.07.45.1a1.84,1.84,0,0,1,.25.05Z"/></g></g></svg>