<svg xmlns="http://www.w3.org/2000/svg" xmlns:xlink="http://www.w3.org/1999/xlink" viewBox="0 0 21.28 7.82"><defs><style>.cls-1{fill:#fff;}.cls-2{fill:#e1e8f6;}.cls-3{mask:url(#mask);}</style><mask id="mask" x="0" y="0" width="21.28" height="7.82" maskUnits="userSpaceOnUse"><g id="mask-8"><polygon id="path-7" class="cls-1" points="0 7.82 21.28 7.82 21.28 0 0 0 0 7.82"/></g></mask></defs><title>HR</title><g id="Layer_2" data-name="Layer 2"><g id="Layer_1-2" data-name="Layer 1"><path id="Fill-1" class="cls-2" d="M11.43,4.73c.42,0,.56.21.56.88s-.14.88-.56.88-.55-.22-.55-.88S11,4.73,11.43,4.73Z"/><path id="Fill-3" class="cls-2" d="M9.47,4.73H9V5.6h.45c.31,0,.41-.09.41-.44s-.1-.43-.41-.43"/><path id="Fill-5" class="cls-2" d="M3.8,4.73H3.35v.8H3.8c.32,0,.42-.1.42-.41s-.1-.39-.42-.39"/><path id="Fill-7" class="cls-2" d="M18.17,5.41v.27h-.94v.57c0,.16.05.21.18.21h.89v.26c-.29,0-.64,0-1,0a.4.4,0,0,1-.45-.4V4.88a.41.41,0,0,1,.45-.41c.32,0,.67,0,1,0v.25h-.89c-.13,0-.18.06-.18.21v.45ZM15.73,6.77A3.55,3.55,0,0,1,15,6.71l0-.24h.69c.33,0,.43-.05.43-.33s-.09-.3-.27-.35l-.45-.12A.58.58,0,0,1,15,5c0-.53.23-.6.74-.6a2.59,2.59,0,0,1,.67.07l0,.24-.64,0c-.3,0-.42,0-.42.31s.08.3.27.35l.44.12a.57.57,0,0,1,.46.64c0,.52-.23.62-.76.62Zm-1.18-.16a.11.11,0,0,1-.12.12h-.31a.14.14,0,0,1-.14-.1l-.7-1.53a1.79,1.79,0,0,1-.13-.32H13.1c0,.11,0,.22,0,.32V6.73h-.33V4.61a.12.12,0,0,1,.13-.13h.29c.08,0,.11,0,.15.1L14,6.08l.15.33h.05c0-.11,0-.23,0-.35V4.48h.33Zm-3.12.17c-.66,0-.89-.29-.89-1.17s.23-1.17.89-1.17.9.28.9,1.17-.24,1.17-.9,1.17Zm-1.92-.9a3.58,3.58,0,0,1-.49,0v.88H8.7V4.48a5.64,5.64,0,0,1,.77,0c.56,0,.74.16.74.71s-.18.72-.7.72Zm-2,.89a3.66,3.66,0,0,1-.71-.06l0-.24h.69c.32,0,.42-.05.42-.33s-.08-.3-.26-.35l-.46-.12A.57.57,0,0,1,6.77,5c0-.53.23-.6.73-.6a2.71,2.71,0,0,1,.68.07l0,.24-.64,0c-.31,0-.43,0-.43.31a.3.3,0,0,0,.27.35l.45.12a.57.57,0,0,1,.45.64c0,.52-.22.62-.76.62ZM6.29,5.41v.27H5.35v.57c0,.16.05.21.18.21h.89v.26c-.29,0-.64,0-1,0A.4.4,0,0,1,5,6.34V4.88a.41.41,0,0,1,.45-.41c.32,0,.67,0,1,0v.25H5.53c-.13,0-.18.06-.18.21v.45Zm-2,1.32L4.09,6a.27.27,0,0,0-.28-.22H3.35v.93H3V4.48a5.73,5.73,0,0,1,.78,0c.53,0,.74.15.74.65s-.11.54-.41.58v0A.42.42,0,0,1,4.42,6l.21.71ZM0,7.82H21.28V3.39H0Z"/><polygon id="Fill-9" class="cls-2" points="1.76 2.45 1.41 2.45 1.41 1.31 0.35 1.31 0.35 2.45 0 2.45 0 0.02 0.35 0.02 0.35 1 1.41 1 1.41 0.02 1.76 0.02 1.76 2.45"/><path id="Fill-11" class="cls-2" d="M3.79,2.45H3.52l0-.23a1.29,1.29,0,0,1-.73.28A.43.43,0,0,1,2.3,2V.73h.34V1.92c0,.21.07.28.25.28A1.11,1.11,0,0,0,3.45,2V.73h.34Z"/><path id="Fill-13" class="cls-2" d="M6.86,1.16V2.45H6.53V1.26c0-.2-.07-.28-.25-.28s-.27.07-.53.25V2.45H5.43V1.26c0-.21-.08-.28-.25-.28s-.27.06-.53.25V2.45H4.32V.73H4.6V1A1.09,1.09,0,0,1,5.3.69a.39.39,0,0,1,.43.3A1,1,0,0,1,6.4.69a.42.42,0,0,1,.46.47"/><path id="Fill-15" class="cls-2" d="M7.63,2c0,.17.08.24.25.24A.9.9,0,0,0,8.46,2V1.64H7.83c-.16,0-.2.09-.2.22Zm1.16-.7v1.2H8.53l0-.27a1,1,0,0,1-.68.3A.46.46,0,0,1,7.29,2V1.82c0-.28.17-.43.48-.43h.69V1.25C8.45,1,8.38,1,8.12,1L7.39,1l0-.25A5.83,5.83,0,0,1,8.19.69c.39,0,.6.13.6.56Z"/><path id="Fill-17" class="cls-2" d="M10.83,1.16V2.45h-.34V1.26c0-.22-.05-.28-.21-.28a1.24,1.24,0,0,0-.64.25V2.45H9.31V.73h.28l0,.26a1.31,1.31,0,0,1,.76-.3.42.42,0,0,1,.46.47"/><g class="cls-3"><path id="Fill-19" class="cls-2" d="M11.36,2.45h.34V.73h-.34ZM11.61,0a.09.09,0,0,1,.1.1V.3a.09.09,0,0,1-.1.1h-.16a.09.09,0,0,1-.1-.1V.1a.09.09,0,0,1,.1-.1Z"/></g><g class="cls-3"><path id="Fill-21" class="cls-2" d="M12.71,2c0,.17.06.22.22.22h.25l0,.27a1.94,1.94,0,0,1-.4,0A.42.42,0,0,1,12.37,2V1h-.31V.75l.31,0V.23h.34v.5h.53V1h-.53Z"/></g><g class="cls-3"><path id="Fill-22" class="cls-2" d="M13.85,2c0,.17.07.24.24.24A.88.88,0,0,0,14.67,2V1.64h-.62c-.16,0-.2.09-.2.22ZM15,1.25v1.2h-.27l0-.27a1,1,0,0,1-.69.3A.46.46,0,0,1,13.5,2V1.82c0-.28.18-.43.48-.43h.69V1.25c0-.21-.08-.27-.34-.27l-.72,0,0-.25A5.83,5.83,0,0,1,14.4.69c.4,0,.61.13.61.56Z"/></g><g class="cls-3"><path id="Fill-23" class="cls-2" d="M16.58,1h-.11a1.49,1.49,0,0,0-.61.19V2.45h-.34V.73h.26l0,.27a1.17,1.17,0,0,1,.72-.31h.08Z"/></g><g class="cls-3"><path id="Fill-24" class="cls-2" d="M17,2.45h.34V.73H17ZM17.2,0a.09.09,0,0,1,.1.1V.3a.09.09,0,0,1-.1.1H17a.09.09,0,0,1-.1-.1V.1A.09.09,0,0,1,17,0Z"/></g><g class="cls-3"><path id="Fill-25" class="cls-2" d="M18.08,2c0,.17.07.24.24.24A.87.87,0,0,0,18.9,2V1.64h-.62c-.16,0-.2.09-.2.22Zm1.16-.7v1.2H19l0-.27a1,1,0,0,1-.69.3A.46.46,0,0,1,17.73,2V1.82c0-.28.18-.43.49-.43h.68V1.25c0-.21-.07-.27-.34-.27l-.72,0,0-.25a5.83,5.83,0,0,1,.83-.08c.39,0,.6.13.6.56Z"/></g><g class="cls-3"><path id="Fill-26" class="cls-2" d="M21.28,1.16V2.45h-.34V1.26c0-.22-.06-.28-.22-.28a1.25,1.25,0,0,0-.63.25V2.45h-.34V.73H20l0,.26a1.26,1.26,0,0,1,.76-.3.42.42,0,0,1,.46.47"/></g></g></g></svg>