<svg xmlns="http://www.w3.org/2000/svg" viewBox="0 0 52.77 60.95">
  <defs><style>.cls-1,.cls-2{fill:#4c8cca;}.cls-2{fill-rule:evenodd;}</style></defs>
  <title>United Nations Office for the Coordination of Humanitarian Affairs</title>
  <g id="Layer_2" data-name="Layer 2">
    <g id="Layer_1-2" data-name="Layer 1">
      <path class="cls-1" d="M0,54.26a6.49,6.49,0,0,1,6.64-6.7A6.7,6.7,0,0,1,6.64,61,6.48,6.48,0,0,1,0,54.26m11.44,0a4.81,4.81,0,1,0-9.6,0,4.81,4.81,0,1,0,9.6,0"/>
      <path class="cls-1" d="M24.63,50.64a3.91,3.91,0,0,0-3.08-1.46c-2.86,0-4.74,2.29-4.74,5.18a4.68,4.68,0,0,0,4.74,5,3.92,3.92,0,0,0,3.33-1.71l1.46,1.1A5.94,5.94,0,0,1,21.52,61,6.56,6.56,0,0,1,15,54.36a6.45,6.45,0,0,1,6.64-6.8,5.59,5.59,0,0,1,4.46,2Z"/><polygon class="cls-1" points="28.43 47.88 30.15 47.88 30.15 53.17 36.76 53.17 36.76 47.88 38.48 47.88 38.48 60.63 36.76 60.63 36.76 54.79 30.15 54.79 30.15 60.63 28.43 60.63 28.43 47.88"/>
      <path class="cls-1" d="M45.75,47.89h1.57l5.45,12.73h-2l-1.27-3.14H43.41l-1.26,3.14h-2ZM48.85,56l-2.38-5.84h0L44,56Z"/>
      <path class="cls-2" d="M29.55,21.25a.32.32,0,0,0-.36.07l-.28.22s-.08.11,0,.17.22-.08.22-.08l.28-.15.17-.08s.18-.06,0-.15m7.32-3.65A11.17,11.17,0,0,1,36.7,19c.06.16.37.37.39.54s-.28.4-.38.24a.37.37,0,0,0-.15-.14,10.28,10.28,0,0,1-2.48,4.5l.85.85a.69.69,0,0,0,0-.25c-.05-.29,0-.39.11-.39a.56.56,0,0,1,.55.38c0,.13.07,0,.15.22a.74.74,0,0,0,0,.38,1.3,1.3,0,0,1,.08.21c0,.06,0,.13,0,.26a12.69,12.69,0,0,0,3.46-8.23Zm-3.15,10a12.31,12.31,0,0,0,1.4-1.1L35,26.47a.25.25,0,0,1-.22,0,.79.79,0,0,1-.12-.29l-1.28-1.29a1.37,1.37,0,0,1-.27.28v.32c.81.39,1,.72,1,.9s-.57.65-.57.8.21.26.2.41a.3.3,0,0,1,0,.09m-6.88.06v2.2a14,14,0,0,0,1.95-.22,1.82,1.82,0,0,0-.61-.35,1.34,1.34,0,0,1-.39-.65c-.13-.35.26-.37.16-.63s-.89-.16-.89-.16.12.16-.22-.19m-.94-.19A10.59,10.59,0,0,1,19.46,25a4,4,0,0,0,.3.28c.49.43.54.68.52.91s-1.11.2-1.11.2h0a2.56,2.56,0,0,1-1.16.25.57.57,0,0,1-.28-.17l-.1.1a13,13,0,0,0,8.3,3.33Zm-10-9a8.65,8.65,0,0,1-.08-.89H13.37A13,13,0,0,0,14,21h0c.1-.05,0-.11.06-.24s.15,0,.2-.08,0-.13,0-.23.13-.12.14-.2-.06.06-.08-.14a1,1,0,0,1,.11-.47s.08-.19.18-.42.53-.34.67-.49.11-.29.36-.33a.42.42,0,0,1,.3.07m-.08-1.83a10.25,10.25,0,0,1,2.8-6.61L16.91,8.34a12.66,12.66,0,0,0-3.54,8.32ZM19.3,9.39a10.55,10.55,0,0,1,6.6-2.65V4.34a13.07,13.07,0,0,0-8.31,3.34Zm7.54-2.65a10.59,10.59,0,0,1,5.33,1.72A2.9,2.9,0,0,1,32,8.13c0-.07.13-.13.13-.13-.29-.38-.34-.55-.24-.63s.37.15.52.39.34.47.46.49.39,0,.45.25a5.65,5.65,0,0,1,.22.61.65.65,0,0,0,0,.13l.71-.71a.83.83,0,0,0-.4-.44l-.51.18s-.18.09-.25,0a1.1,1.1,0,0,1-.06-.37s-.2-.13-.2-.23.11-.44,0-.56a.78.78,0,0,0-.23-.22,4.28,4.28,0,0,0-.16-.61A2.75,2.75,0,0,0,32,5.7a.62.62,0,0,0,0-.09,13.13,13.13,0,0,0-5.17-1.27Zm7.3,3.39.19.21c.19.22.37.44.54.67l.25.35a1.28,1.28,0,0,0,.25-.14c.16-.09.25,0,.3.2s-.31.18-.19.38.33,0,.37,0a.2.2,0,0,1,0,.28c-.07.08-.14.12-.16.19a1.62,1.62,0,0,1,.1.18c.14.06.38-.06.38.16s.19.43.22.64a.51.51,0,0,1-.1.34c.09.27.18.53.25.8a.28.28,0,0,1,.23-.06v0a1.78,1.78,0,0,1,0,.36,3.92,3.92,0,0,1-.06.4l.06.39a2.68,2.68,0,0,1,.09.52h0c0,.21,0,.41,0,.62h2.44a12.56,12.56,0,0,0-1-4.58h-.12a.8.8,0,0,1-.36.14c-.15,0-.23-.2-.23-.2s-.69-.9-.79-1a.69.69,0,0,0-.4-.15c-.27,0-.23-.16-.23-.16a5.85,5.85,0,0,0-.57-.23l-.2-.41a.42.42,0,0,0,0-.18,1.88,1.88,0,0,0-.5-.07,1.45,1.45,0,0,1-.31-.21l-.4.41a.33.33,0,0,1,0,.1m9.56,7A17.36,17.36,0,0,1,9,17.12a17.36,17.36,0,0,1,34.71,0M26.39,14.23h-.05a3.18,3.18,0,0,0-.62.06c.05,0,.1.05.07.13s.11.52.11.52c-.24.44-1.08.58-1.08.58s-.08.29-.26.39a.9.9,0,0,0-.35.31c-.1.14-.07.27-.12.43s.06.24,0,.35a3.35,3.35,0,0,1-.16.54c-.06.09-.21,0-.3-.07s-.15-.49-.2-.55a0,0,0,0,0,0,0,1.27,1.27,0,0,0,0,.2,2.88,2.88,0,0,0,.06.59c.12,0,.1-.09.14-.09.29,0,.1.19.24.19s.21-.06.22-.33a.29.29,0,0,1,.34-.27c.08,0,0,.2.05.25s.13,0,.13.17-.3.36-.34.61-.11.3-.22.31-.12-.28-.21-.14.2.41.2.41a1,1,0,0,0,.28-.38c.05-.12.17-.1.31-.18s.14-.48.13-.57.15-.07.79-.11.6.17.57.36.09,0,.09.16-.24.39-.31.56.1.19,0,.27a.63.63,0,0,0-.12.17c-.35.4-.38.16-.59.25a.8.8,0,0,1-.45,0l-.13.05a3,3,0,0,0,1.74.56,3.15,3.15,0,0,0,.44,0c.07-.33.18-.87.44-1s.59.08.73,0a.47.47,0,0,0,.23-.3.89.89,0,0,0,.07-.54c-.07-.19-.2-.11-.24-.24s.25-.14.1-.32-.17-.48-.25-.54-.14,0-.23-.11,0-.21.05-.35.23-.16.21-.28-.15,0-.18-.16a.64.64,0,0,1,.1-.36s-.35,0-.39-.11a1.16,1.16,0,0,0-.49-.54,1.22,1.22,0,0,0-.64,0c-.05-.19-.34-.39-.34-.39-.22-.3-.08-.27,0-.4s.36,0,.4,0,0,0,0,0M36.47,7.7A14,14,0,0,1,38,9.55a1.48,1.48,0,0,1,.37.47c0,.07,0,.13,0,.17l.11.19.05.06a1.74,1.74,0,0,1,.36.56.75.75,0,0,1,.08.33,13.44,13.44,0,0,1,1.29,5.33h2.5A16,16,0,0,0,38.22,6ZM27.19,3.42A14,14,0,0,1,32.88,5l.48-.2s-.16,0,.08,0a2.47,2.47,0,0,1,.43.11c.28.1.3,0,.41,0s.14.23.28.34.11,0,.29.11a1.52,1.52,0,0,1,.49.49c.06.13.16-.06.27.58,0,0,.22.23.35.39l1.58-1.59A16.47,16.47,0,0,0,26.84,1V3A.11.11,0,0,1,27,3c.17.11.24.09.23.28a.85.85,0,0,0,0,.16M16.92,7a14,14,0,0,1,9-3.62V.94A16.5,16.5,0,0,0,15.17,5.26Zm-4.49,9.64a13.61,13.61,0,0,1,3.82-9L14.5,5.92A16,16,0,0,0,9.93,16.66Zm3.82,9.92c-.29-.31-.58-.63-.84-1-.25-.09-.24-.16-.49-.37s-.12-.44-.24-.49,0,.09-.08.13-.16.06-.32,0a.78.78,0,0,1-.31-.28c-.28-.2-.24-.46-.29-.54s-.23,0-.32,0-.09-.18-.19-.23a.35.35,0,0,0-.24,0,3.15,3.15,0,0,0-.34-.49s0,.24-.22.24-.5-.46-.6-.51-.14.1-.27,0-.26-.56-.27-.64-.11-.19-.16-.33a2.94,2.94,0,0,1,0-.9c.07-.17.13,0,.19-.26s.2-.25.32-.26.17,0,.23.13.22,0,.3,0,0-.15,0-.22.19,0,.31-.1.31-.1.35,0l0,0a13.61,13.61,0,0,1-.42-2.88H9.93A16,16,0,0,0,14.5,28.33Zm9.65,4.26a14,14,0,0,1-9-3.61L15.18,29A16.42,16.42,0,0,0,25.9,33.29Zm9.88-3.63A13.55,13.55,0,0,1,33.24,29a.31.31,0,0,0,0,.08,4.71,4.71,0,0,1-.66,1c-.09.16-.14.05-.34.22s-.08.27-.32.36l-.39.17a.9.9,0,0,1-1.36-.05c-.12-.09-.35-.12-.48-.27l-.1-.11a14.36,14.36,0,0,1-2.73.36v2.45A16.51,16.51,0,0,0,37.54,29Zm4.47-9.61a13.6,13.6,0,0,1-3.79,9l1.75,1.75a16,16,0,0,0,4.54-10.7Zm-5.75-.94h1.42a8.79,8.79,0,0,0-.12-1.15,1.88,1.88,0,0,1-.21.31c-.14.16-.31.07-.47.15s0,.23-.07.33.15.07.08.22-.23.08-.33.08-.18-.09-.3.06m-2.8-4.19.34.41a.4.4,0,0,1,.28,0c.29.06.74.13,1,.15s.36.55.51.61.11.12.13.27-.12.11-.1.21.13.22.23.11a.66.66,0,0,1,.59-.21c.47.08.3.36.49.41s.12.09.19.17,0,.19-.14.23-.1.12-.1.2-.11.18-.12.25-.09.3,0,.3.18.09.26,0,.45-.47.45-.66v-.05a9.94,9.94,0,0,0-.36-1.13.74.74,0,0,0-.14-.2,5.52,5.52,0,0,1-.89-.6c-.11-.16,0-.2.13-.3a.5.5,0,0,0,.13-.43l-.17-.26-.58-.77a4.36,4.36,0,0,0-.35-.4ZM26.84,10.1A7.1,7.1,0,0,1,31,11.81l1.73-1.73a9.59,9.59,0,0,0-5.91-2.4Zm-5.15,1.69A7.06,7.06,0,0,1,25.9,10.1V7.67A9.67,9.67,0,0,0,20,10.06Zm-1.18,1.28a6,6,0,0,1,.5-.63l-1.72-1.73a9.34,9.34,0,0,0-2.53,5.95h1.06a.42.42,0,0,1-.1-.32c0-.12-.07-.54,0-.61s.13-.15.18-.23,0-.2,0-.25a3.32,3.32,0,0,1,.22-.27c.08-.09.06-.34.28-.44s.28,0,.44,0,.14-.23.14-.23-.06-.07,0-.23.66-.29.66-.29,0-.14.33-.42a1.53,1.53,0,0,1,.5-.29m-1.28,3.59c0-.1,0-.21,0-.31a.61.61,0,0,0-.28-.06c-.26,0-.48.16-.47.37Zm-1.67.94h-.8A9,9,0,0,0,17,19.33c.13-.06.12-.14.13-.22s.14-.08.18-.16,0-.08,0-.12a.54.54,0,0,1-.2-.28c0-.14.08-.26.14-.42s0-.21.07-.36,0,0,.25-.17M21,21.81a6.91,6.91,0,0,1-1.66-3.22.12.12,0,0,1-.05-.05.23.23,0,0,0-.27-.12S19,18.94,19,19s0,.29-.16.28a.25.25,0,0,1-.17-.15s-.19,0-.22-.05-.18-.23,0-.38.15.15.27,0-.15-.83.05-.85.33.3.39.32l.16-.05a3.91,3.91,0,0,1-.05-.48H18.17c-.05.11,0,.5-.12.57s-.5-.07-.54.18.13.2.13.45-.12.09,0,.33.46.32.53.6a1.59,1.59,0,0,0,.2.47c0,.07-.16.22,0,.42a1.32,1.32,0,0,1,.21.63,2.75,2.75,0,0,0,.1.94c.12.51.13.18.3.51a1,1,0,0,1,.1.51c.1.11.19.22.3.33ZM24.74,24a7.26,7.26,0,0,1-3-1.51L20,24.19a9.68,9.68,0,0,0,4.81,2.26,5.33,5.33,0,0,1-.49-.29,2.37,2.37,0,0,0-.38-.54c-.27-.33-.21-.55-.21-.55a.41.41,0,0,0,.24-.18,1.44,1.44,0,0,1,.35-.67,1.71,1.71,0,0,1,.45-.24m5.53-1-.32.2h0a4.62,4.62,0,0,1,1.16.35,1.46,1.46,0,0,0,.61.26c.27,0,.45,0,.58-.06L32,23.44a1.65,1.65,0,0,1-.4-.16c-.32-.16-.24.07-.53-.09a3,3,0,0,0-.82-.2m5.42-3.72a8.4,8.4,0,0,0,.23-1.67H34.48c.1.1.22.17.28.24s.1.31.12.46.15.13.39.36.21.43.32.56a.14.14,0,0,0,.1.05M32,21.42l-.16.2,0,0c.14-.09.23.07.32-.08s.09-.26.17-.39.34-.14.5-.13.14,0,.24.23a1.38,1.38,0,0,1,.06.53c.07.06-.14.28-.16.73,0,.25-.13.09-.12.4l0,.05.17.18a.67.67,0,0,0,.06-.12c.11-.24.25-.36.33-.24a2.42,2.42,0,0,1,.17.59,9.36,9.36,0,0,0,1.94-3.42l-.07,0c-.09,0-.42.08-.72.12s-.56,0-.56,0-.17-.15-.24-.06-.12.38-.37.32-.12-.32-.2-.34,0,.11-.08.25-.35.51-.39.59-.54.1-.61.22a.82.82,0,0,1-.28.35M29.92,20l.7.7a1.15,1.15,0,0,0-.1-.42l-.31-.15-.13-.08.07-.15-.09,0Zm-.42,2.36.31-.2a.27.27,0,0,0-.27.13.25.25,0,0,1,0,.07m-7.13-.57a6.25,6.25,0,0,0,3.09,1.36s0,.07,0,.11a.3.3,0,0,0,.19.08.49.49,0,0,0,.46-.16c.17-.16.14,0,.26-.07a4.11,4.11,0,0,1,.23-.35c.12-.06.17-.22.22-.24v.67a6.27,6.27,0,0,0,2.32-.65c-.13,0-.3-.22-.35-.23s.06.24.08.31-.37.19-.4.14c-.13-.21-.32-.24-.32-.19,0,.33-.18.24-.18.24-.32-.47-.42-.17-.58-.34s-.24-.1-.24-.1-.21.11-.33.15-.11.18-.23.24a4.11,4.11,0,0,0-.23.35c-.12,0-.09-.09-.26.07a.49.49,0,0,1-.46.16.3.3,0,0,1-.19-.08s0-.08,0-.11a2.44,2.44,0,0,1,0-.26,1.23,1.23,0,0,1,.1-.6c.06-.09.21-.05.35,0v-.55l0-.08s0-.07,0-.09v-.61A3.92,3.92,0,0,1,24,20.17Zm.16-3.93,0-.18c-.07.07-.29,0-.26.15s.13,0,.29,0m-2.18.78a6,6,0,0,0,1.34,2.5l1.62-1.63-.19-.26h0c-.14.07,0,.27-.12.33a.68.68,0,0,0-.2.27c0,.11-.31.36-.44.23s0-.74-.21-.76,0,.05,0,.29-.12.12-.2.08a1.66,1.66,0,0,1-.33-.25c-.2-.18-.06-.29-.06-.29s-.16-.14-.21-.13,0,.13-.16.07-.13-.29-.13-.29a1.74,1.74,0,0,1-.47-.11l-.22-.05M25.9,11a6.2,6.2,0,0,0-3.54,1.41l.93.94c.17,0,.14.15.32.2s.17,0,.32-.05.05.08.11.16.15,0,.15,0,.11.07.3,0,.08-.19.17-.31a.41.41,0,0,0,.07-.32c0-.13.17-.27.24-.36s.14-.08.21,0-.08.17,0,.25.31,0,.76-.09Zm4.3,1.31A6.23,6.23,0,0,0,26.84,11v1.79a3.08,3.08,0,0,1,.65.18l.06,0a.77.77,0,0,1,.58-.38c.08,0,.05-.14.16-.24s.27,0,.3.12a1.15,1.15,0,0,1-.19.82.87.87,0,0,1-.46.33,4.12,4.12,0,0,1,.79.47l.18-.17a.25.25,0,0,1,0-.09l.18-.13.78-.78-.07,0c-.09-.08-.33-.1.13-.41l.24-.14m1,1L31,13.14l-.17.17c.09.1.26.28.21.2s.05,0,.11-.19m2.93-9c.11-.09.14,0,.26.07s.13-.08.31,0a.4.4,0,0,1,.25.34,2.52,2.52,0,0,0,.13.33c0,.08-.21.21-.35.13a1,1,0,0,1-.29-.32L34,4.58a.3.3,0,0,1,.07-.27m-7-1.55s.09-.14.19-.11a2,2,0,0,0,.3.05l.55-.2.44-.19.17-.09A1.57,1.57,0,0,1,30,2.59l.16.13-.06.16a3.35,3.35,0,0,1-.52.27,1.11,1.11,0,0,1-.38,0l-.33-.05-.69.19a1.36,1.36,0,0,1-.51,0,.56.56,0,0,1-.19-.09l-.33-.24,0-.12m7.25,7.58c.1.1.38.46.5.59a.2.2,0,0,1,0,.08c-.17-.23-.35-.45-.54-.67"/>
      <path class="cls-2" d="M35.27,35.21c.1,0,1.36-.24,3.31-.45a27.52,27.52,0,0,0,4.17-.49A5.19,5.19,0,0,0,45.5,32.6s.11-.05.07,0a7.47,7.47,0,0,1-3.25,3.09,8.89,8.89,0,0,1-5.25.73c-.59-.12-1.44-.38-2.32-.62a11.32,11.32,0,0,0-2.56-.45s-.07-.11.11-.14a10.57,10.57,0,0,0,2.1-.6,12.29,12.29,0,0,0,3.08-2.55,16,16,0,0,1,3-2.48s.07,0,0,.09a8.52,8.52,0,0,0-.95,1.64,7.52,7.52,0,0,1-1.27,2.23,5.12,5.12,0,0,1-2.95,1.56s-.1.05,0,.06m14-8.57A7.65,7.65,0,0,1,46.73,31a9.35,9.35,0,0,1-3.92,2.3c-.77.19-1.64.3-2.37.44a15.26,15.26,0,0,0-2,.53s-.08,0,0,0A6.36,6.36,0,0,0,39.51,33,13.56,13.56,0,0,0,41,29.56a19.41,19.41,0,0,1,.81-2.08,16.44,16.44,0,0,1,2-2.88s.11-.07.1,0A7.18,7.18,0,0,0,43.39,26c-.29,1.33-.35,2.73-.52,3.26a6.79,6.79,0,0,1-1.12,2.33A7.82,7.82,0,0,1,40.42,33c-.12.07,0,0,0,0a10.45,10.45,0,0,0,1-.68,17.09,17.09,0,0,1,1.75-1.27c.83-.5,1.73-.72,3.35-1.67a5.85,5.85,0,0,0,2.56-2.74s.08-.14.09,0M45.41,19.7a5.27,5.27,0,0,0,0,1.27,25.38,25.38,0,0,1,.63,3.9,5.71,5.71,0,0,1-1,3.27l.05,0s1.24-1.75,1.84-2.52,1.85-1.93,2.45-2.6a5.83,5.83,0,0,0,1.36-3h0a7.78,7.78,0,0,1-.5,3.88,8.25,8.25,0,0,1-2.29,3.15,26.91,26.91,0,0,1-3.24,2.24,12.62,12.62,0,0,0-1.54,1.05s-.06,0-.06-.05a13.09,13.09,0,0,0,.86-2.06,19.85,19.85,0,0,0,.39-3c.05-1,.34-4.47,1-5.56Zm-.32-5.46c0-.07-.12-.15-.13,0a15.38,15.38,0,0,0,.46,3.65c.31,1.26,1.13,3.94,1.23,4.31a7.08,7.08,0,0,1,0,2.6s0,.15.09.06S47.58,23.48,48,23a13.34,13.34,0,0,0,1.81-2.5,9.35,9.35,0,0,0,.87-4.36A8.89,8.89,0,0,0,50,13S50,13,50,13a6.74,6.74,0,0,1,0,1.75,7.32,7.32,0,0,1-.75,2.29c-.45,1-.89,2.1-1,2.49a15.86,15.86,0,0,0-.37,1.91,3.56,3.56,0,0,1-.37,1.1l-.07-.06a4.28,4.28,0,0,0,.33-1.63A5.77,5.77,0,0,0,47,18c-.52-.89-1.87-2.84-1.92-3.72M47.4,6.8c-.07-.09,0,0,0,0A4.61,4.61,0,0,1,48,9.42c0,1.65-.26,1.72-.3,3.17a25.93,25.93,0,0,0,.18,3.24h-.09a5.85,5.85,0,0,0-.51-2,13.17,13.17,0,0,0-2.86-3.06,3.7,3.7,0,0,1-.86-1.17c-.06-.1-.12,0-.12,0a11.24,11.24,0,0,0,.84,2.64c.65,1.45,2.14,2.9,2.58,3.75a6.36,6.36,0,0,1,1,2.59H48a8.34,8.34,0,0,1,.52-2.22,13.73,13.73,0,0,0,.9-2.75,7.88,7.88,0,0,0,0-3.07,9.34,9.34,0,0,0-2-3.74m-.28,5.91a5.16,5.16,0,0,0-.86-1.22,15.28,15.28,0,0,0-1.37-1.31c-.61-.49-1.31-.92-1.75-1.33a5.48,5.48,0,0,1-1.82-3.68,6.74,6.74,0,0,0,1,1.39c.58.57,2,1.35,2.59,1.9a4.91,4.91,0,0,1,1.47,2.1h.1s-.63-1.66-.78-2.28a22.32,22.32,0,0,0-.66-2.64,3.34,3.34,0,0,0-1.43-1.85s.06,0,.06,0,2.45.37,3.39,3.6a24.91,24.91,0,0,1,0,3.95c0,.86.08,1.42.08,1.42ZM38.88,1.49s.76.26,1.6.58A6.39,6.39,0,0,1,43,3.61a7.29,7.29,0,0,1,1.7,3.31,3,3,0,0,0,.34.81s0,.08,0,.08a33.76,33.76,0,0,1-2.79-2.43c-.62-.7-1.39-2-1.94-2.55s-1.37-1.34-1.37-1.34M11.31,36.83a7.6,7.6,0,0,0,5.25,2.44,7.3,7.3,0,0,0,4.21-1.36,27.57,27.57,0,0,1,2.74-1.76,3.26,3.26,0,0,1,1.95-.07,11.59,11.59,0,0,0-2.55,1.39A18.32,18.32,0,0,0,20,40l1.07.9a15.13,15.13,0,0,1,2.25-2.36,10.61,10.61,0,0,1,3.24-2.1A16.41,16.41,0,0,1,32,40.83L33,39.92a19.6,19.6,0,0,0-5.47-3.82s.28-.18,1.58-.05a4.33,4.33,0,0,1,1.72,1,19.75,19.75,0,0,0,2.66,1.62,8.51,8.51,0,0,0,2.82.59,7.2,7.2,0,0,0,5.3-2.5s0-.07-.06,0a6.13,6.13,0,0,1-3.63,1A10.34,10.34,0,0,1,34,36.58a10.07,10.07,0,0,0-4.6-1.25,8.18,8.18,0,0,0-3,.38,6.74,6.74,0,0,0-2.58-.41,9.81,9.81,0,0,0-4.21,1,11.06,11.06,0,0,1-4.94,1.49,6.16,6.16,0,0,1-3.33-1c-.05,0-.08.06-.08.06m6.37-1.53c-.09,0-1.38-.26-3.33-.47a29.19,29.19,0,0,1-4.25-.46,5.17,5.17,0,0,1-2.73-1.63s-.1-.05-.07,0a7.52,7.52,0,0,0,3.26,3.08,9,9,0,0,0,5.36.67c.58-.13,1.44-.39,2.31-.63a11.22,11.22,0,0,1,2.56-.44s.08-.11-.11-.15a5.35,5.35,0,0,1-2.1-.6,11.4,11.4,0,0,1-3.15-2.49,16.3,16.3,0,0,0-3-2.46s-.07,0,0,.09a7.64,7.64,0,0,1,1,1.63,7.5,7.5,0,0,0,1.3,2.18,5.29,5.29,0,0,0,3,1.57s.1.06,0,.07M3.6,26.8a7.89,7.89,0,0,0,2.54,4.37,9.25,9.25,0,0,0,4.05,2.29c.78.17,1.64.27,2.36.41a13.74,13.74,0,0,1,1.95.5s.07,0,0,0a7,7,0,0,1-1.12-1.24,14.67,14.67,0,0,1-1.51-3.45,16.77,16.77,0,0,0-.73-1.81,19.86,19.86,0,0,0-2.1-3.1s-.12-.06-.11,0a6.75,6.75,0,0,1,.47,1.36c.17.81.42,2.73.58,3.26a7.29,7.29,0,0,0,1.14,2.39,7.22,7.22,0,0,0,1.34,1.34c.11.08,0,.06,0,.06a12.19,12.19,0,0,1-1.09-.71,11.12,11.12,0,0,0-1.44-1.05c-.83-.51-2-.9-3.61-1.86A6.19,6.19,0,0,1,3.68,26.8s-.07-.14-.08,0m3.72-6.93a5,5,0,0,1,0,1.29A24.55,24.55,0,0,0,6.8,25,5.75,5.75,0,0,0,7.87,28.3l0,0S6.58,26.58,6,25.81s-1.89-1.87-2.45-2.6A6.25,6.25,0,0,1,2.1,20.28H2.05a8,8,0,0,0,.54,3.85,8.21,8.21,0,0,0,2.32,3.15A25.2,25.2,0,0,0,8.16,29.5,12,12,0,0,1,9.7,30.56s.07,0,.07,0a13.52,13.52,0,0,1-.87-2.07,21.2,21.2,0,0,1-.39-3c0-1-.43-4.49-1.08-5.58Zm.29-5.56c0-.07.12-.15.13,0A25.16,25.16,0,0,1,7.35,18c-.29,1.27-1.14,3.94-1.22,4.31a9.44,9.44,0,0,0,0,2.6s0,.15-.09.07-.88-1.34-1.32-1.83a13.69,13.69,0,0,1-1.84-2.53A10.93,10.93,0,0,1,2,15.86c.15-2.15.64-2.67.64-2.67s.09,0,.07,0a5.39,5.39,0,0,0,0,1.7,7.34,7.34,0,0,0,.88,2.54,13.51,13.51,0,0,1,.93,2.29,12.25,12.25,0,0,1,.41,1.82,3.44,3.44,0,0,0,.37,1.1l0,0A4,4,0,0,1,5,21a5.66,5.66,0,0,1,.74-2.92c.48-.92,1.81-2.87,1.85-3.75M5.17,7c.08-.08.12,0,.12,0a3.94,3.94,0,0,0-.64,2.46c0,1.65.3,1.93.34,3.38A25.73,25.73,0,0,1,4.82,16H4.9a5.07,5.07,0,0,1,.57-2.13,14.61,14.61,0,0,1,2.86-3.06A3.57,3.57,0,0,0,9.1,9.69c.07-.1.11,0,.11,0a9.06,9.06,0,0,1-.77,2.52A41.93,41.93,0,0,1,6,16a7.75,7.75,0,0,0-1.13,2.8H4.77a10.54,10.54,0,0,0-.57-2.27,13.48,13.48,0,0,1-.92-2.67,8.81,8.81,0,0,1,0-3.25A8.49,8.49,0,0,1,5.17,7m.38,5.9a4.83,4.83,0,0,1,.86-1.22,15.28,15.28,0,0,1,1.37-1.31c.61-.49,1.31-1,1.75-1.39a5.35,5.35,0,0,0,1.69-3.68,4.69,4.69,0,0,1-.91,1.38c-.58.57-2,1.4-2.6,1.94a4.93,4.93,0,0,0-1.49,2.14h0s.6-1.7.75-2.32a21,21,0,0,1,.66-2.65A3.21,3.21,0,0,1,9,3.93s0-.06,0-.06a4.67,4.67,0,0,0-3.43,3.6c-.27.94.07,3.14,0,4s0,1.4,0,1.4h.07l0-.06m8-11.17s-.59.2-1.44.52A6.64,6.64,0,0,0,9.61,3.71a7.37,7.37,0,0,0-1.7,3.36c-.15.51-.29.87-.29.87a35.16,35.16,0,0,0,2.79-2.42c.62-.71,1.37-2.06,1.93-2.61l1.25-1.28"/>
    </g>
  </g>
</svg>
