<svg xmlns="http://www.w3.org/2000/svg" viewBox="0 0 226.63 127.53">
  <defs><style>.cls-1 {fill: #508fcc;}</style></defs>
  <title>404: Page Not Found</title>
  <g id="Layer_2" data-name="root">
    <g id="Layer_1-2" data-name="Grasshopper">
      <path class="cls-1" d="M215.51,42.35c-4.29-3.25-9.13,1.59-5.88,5.88a0,0,0,0,0,0,0c4.29,3.25,9.13-1.59,5.88-5.88Z" />
      <path class="cls-1" d="M224.34,7.11a10.29,10.29,0,0,0-3.77-3.73C209-3.3,197,6,198.68,17.28h0c3.92,4.22,8.89.71,7.7-3.33a1.91,1.91,0,0,1,.36-1.84c7.16-7.91,16.84,1.79,8.88,8.93a1.82,1.82,0,0,1-1.78.35,4,4,0,0,0-5.28,3.82v11c3.55,4,8,1.57,8-1.93V28.65C224.76,26.21,229.83,16.55,224.34,7.11Z" />
      <path class="cls-1" d="M206.07,97.44c-3.37-2.55-7.17,1.25-4.62,4.62l0,0c3.37,2.55,7.18-1.25,4.62-4.62Z" />
      <path class="cls-1" d="M210.05,66.82c-9.12-5.24-18.49,2-17.2,10.93h0c3.08,3.32,7,.56,6.05-2.61a1.51,1.51,0,0,1,.28-1.45c5.63-6.22,13.23,1.4,7,7a1.44,1.44,0,0,1-1.4.27,3.16,3.16,0,0,0-4.14,3V92.6c2.78,3.17,6.31,1.24,6.31-1.52v-4.4c6.41-1.92,10.4-9.51,6.08-16.93A8.08,8.08,0,0,0,210.05,66.82Z" />
      <path class="cls-1" d="M91.54,0a5.12,5.12,0,0,0-5.13,5.07,5.11,5.11,0,0,0,5.13,5c35,0,64.14,24.6,70.52,57.09-.27,0-.54-.07-.81-.07h-6.74a12.34,12.34,0,0,0-11,6.72h-3.62L118.09,52.29a7,7,0,0,0-9.7,0l-8.56,8.46-8.59-8.46a7,7,0,0,0-9.7,0L59.76,73.84H34.39a11.75,11.75,0,1,0,0,23.49H36L14.22,118.81a5,5,0,1,0,7,7.25l29.1-28.73H56.2A6.5,6.5,0,0,0,58.11,102l-17,16.85a5,5,0,1,0,7,7.25L70.4,104H96.28L81.34,118.81a5,5,0,1,0,7,7.25l16.52-16.28L121.31,126a5.17,5.17,0,0,0,7.25,0,5,5,0,0,0,0-7.15L113.46,104h15.81l22.25,22a5.17,5.17,0,0,0,7.25,0,5,5,0,0,0,0-7.15L143.66,104h17.59a12.39,12.39,0,0,0,12.42-12.42V79.54c0-.13,0-.23,0-.33C172.9,35.41,136.38,0,91.54,0Zm-5,73.84H74.12L86.41,61.72l6.21,6.14Zm26.48,0-6-6,6.25-6.14,12.28,12.12Zm48.86,16.78a5,5,0,1,1,5-5A5,5,0,0,1,161.92,90.62Z" />
    </g>
    <g id="Layer_1-3" data-name="404">
      <path class="cls-1" d="M18.51,37.21v-7.5h2.95V24.12H18.51V2.57H11.75L0,25.36l.31,4.35H11.77v7.5Zm-12-13.09L11.63,12.8l.14-.26V24.12Z" />
      <path class="cls-1" d="M35.49,37.68a8.47,8.47,0,0,0,7.43-3.8q2.61-3.81,2.61-11V16.58q0-7-2.64-10.73A8.51,8.51,0,0,0,35.44,2.1,8.47,8.47,0,0,0,28,5.89q-2.59,3.8-2.6,11v6.55q.11,6.9,2.7,10.59A8.5,8.5,0,0,0,35.49,37.68Zm-3.38-22.5c.08-5,1.19-7.49,3.33-7.49a2.7,2.7,0,0,1,2.52,2,17.64,17.64,0,0,1,.81,6.14v8.44a16.74,16.74,0,0,1-.84,5.87,2.62,2.62,0,0,1-2.44,1.91,2.73,2.73,0,0,1-2.56-2,18,18,0,0,1-.82-6.24Z" />
      <path class="cls-1" d="M61.06,29.71v7.5h6.73v-7.5h2.95V24.12H67.79V2.57H61L49.29,25.36l.3,4.35ZM60.92,12.8l.14-.26V24.12H55.83Z" />
    </g>
  </g>
</svg>
