<svg xmlns="http://www.w3.org/2000/svg" viewBox="0 0 226.63 127.53">
  <defs><style>.cls-1 {fill: #508fcc;}</style></defs>
  <title>500: Server Error</title>
  <g id="Layer_2" data-name="root">
    <g id="Layer_1-2" data-name="Grasshopper">
      <path class="cls-1" d="M215.51,42.35c-4.29-3.25-9.13,1.59-5.88,5.88a0,0,0,0,0,0,0c4.29,3.25,9.13-1.59,5.88-5.88Z" />
      <path class="cls-1" d="M224.34,7.11a10.29,10.29,0,0,0-3.77-3.73C209-3.3,197,6,198.68,17.28h0c3.92,4.22,8.89.71,7.7-3.33a1.91,1.91,0,0,1,.36-1.84c7.16-7.91,16.84,1.79,8.88,8.93a1.82,1.82,0,0,1-1.78.35,4,4,0,0,0-5.28,3.82v11c3.55,4,8,1.57,8-1.93V28.65C224.76,26.21,229.83,16.55,224.34,7.11Z" />
      <path class="cls-1" d="M206.07,97.44c-3.37-2.55-7.17,1.25-4.62,4.62l0,0c3.37,2.55,7.18-1.25,4.62-4.62Z" />
      <path class="cls-1" d="M210.05,66.82c-9.12-5.24-18.49,2-17.2,10.93h0c3.08,3.32,7,.56,6.05-2.61a1.51,1.51,0,0,1,.28-1.45c5.63-6.22,13.23,1.4,7,7a1.44,1.44,0,0,1-1.4.27,3.16,3.16,0,0,0-4.14,3V92.6c2.78,3.17,6.31,1.24,6.31-1.52v-4.4c6.41-1.92,10.4-9.51,6.08-16.93A8.08,8.08,0,0,0,210.05,66.82Z" />
      <path class="cls-1" d="M91.54,0a5.12,5.12,0,0,0-5.13,5.07,5.11,5.11,0,0,0,5.13,5c35,0,64.14,24.6,70.52,57.09-.27,0-.54-.07-.81-.07h-6.74a12.34,12.34,0,0,0-11,6.72h-3.62L118.09,52.29a7,7,0,0,0-9.7,0l-8.56,8.46-8.59-8.46a7,7,0,0,0-9.7,0L59.76,73.84H34.39a11.75,11.75,0,1,0,0,23.49H36L14.22,118.81a5,5,0,1,0,7,7.25l29.1-28.73H56.2A6.5,6.5,0,0,0,58.11,102l-17,16.85a5,5,0,1,0,7,7.25L70.4,104H96.28L81.34,118.81a5,5,0,1,0,7,7.25l16.52-16.28L121.31,126a5.17,5.17,0,0,0,7.25,0,5,5,0,0,0,0-7.15L113.46,104h15.81l22.25,22a5.17,5.17,0,0,0,7.25,0,5,5,0,0,0,0-7.15L143.66,104h17.59a12.39,12.39,0,0,0,12.42-12.42V79.54c0-.13,0-.23,0-.33C172.9,35.41,136.38,0,91.54,0Zm-5,73.84H74.12L86.41,61.72l6.21,6.14Zm26.48,0-6-6,6.25-6.14,12.28,12.12Zm48.86,16.78a5,5,0,1,1,5-5A5,5,0,0,1,161.92,90.62Z" />
    </g>
    <g id="Layer_1-3" data-name="500">
      <path class="cls-1" d="M.70361,20.17554,2.45068,2.22144h17.1045V8.09253H8.07959l-.63086,7.57031a7.27049,7.27049,0,0,1,4.1001-1.335,7.963,7.963,0,0,1,6.73291,3.10547q2.365,3.10546,2.36523,8.7832A12.62271,12.62271,0,0,1,17.83252,34.781a9.44961,9.44961,0,0,1-7.521,3.251,10.46436,10.46436,0,0,1-5.168-1.32226A9.74461,9.74461,0,0,1,1.395,33.03394,10.58627,10.58627,0,0,1,0,27.696H6.79346a6.3907,6.3907,0,0,0,1.09179,3.4209,2.92541,2.92541,0,0,0,4.99805-.42382,10.22611,10.22611,0,0,0,.92188-4.88965,7.94513,7.94513,0,0,0-1.104-4.60938,3.57818,3.57818,0,0,0-3.09326-1.55273,3.634,3.634,0,0,0-3.0083,1.334l-.437.60742Z" />
      <path class="cls-1" d="M45.66113,22.94116q0,7.32716-2.65674,11.209a8.6405,8.6405,0,0,1-7.582,3.88183,8.67107,8.67107,0,0,1-7.5332-3.77246q-2.6565-3.77343-2.75391-10.80859V16.77808q0-7.30225,2.64454-11.17188A8.6414,8.6414,0,0,1,35.374,1.73608a8.66733,8.66733,0,0,1,7.59375,3.833q2.64478,3.835,2.69336,10.94238Zm-6.89062-7.15722a17.987,17.987,0,0,0-.82471-6.25977A2.75138,2.75138,0,0,0,35.374,7.43726q-3.27538,0-3.39648,7.64257v8.80762a18.104,18.104,0,0,0,.83691,6.35645,2.781,2.781,0,0,0,2.60791,2.08593,2.66177,2.66177,0,0,0,2.48682-1.95214,17.03909,17.03909,0,0,0,.86133-5.98145Z" />
      <path class="cls-1" d="M70.79639,22.94116q0,7.32716-2.65674,11.209a8.64051,8.64051,0,0,1-7.582,3.88183,8.67107,8.67107,0,0,1-7.53321-3.77246q-2.65649-3.77343-2.7539-10.80859V16.77808q0-7.30225,2.64453-11.17188a8.64141,8.64141,0,0,1,7.59424-3.87012,8.66735,8.66735,0,0,1,7.59375,3.833q2.64477,3.835,2.69336,10.94238Zm-6.89063-7.15722a17.987,17.987,0,0,0-.82471-6.25977,2.75137,2.75137,0,0,0-2.57177-2.08691q-3.2754,0-3.39649,7.64257v8.80762a18.10372,18.10372,0,0,0,.83692,6.35645,2.781,2.781,0,0,0,2.60791,2.08593,2.66176,2.66176,0,0,0,2.48681-1.95214,17.03862,17.03862,0,0,0,.86133-5.98145Z" />
    </g>
  </g>
</svg>
